<svg width="126" height="126" viewBox="0 0 126 126" fill="none" xmlns="http://www.w3.org/2000/svg">
<circle cx="36.1091" cy="36.8387" r="4.37931" transform="rotate(90 36.1091 36.8387)" stroke="#2D7255" stroke-width="1.45977"/>
<circle cx="36.1091" cy="49.9764" r="4.37931" transform="rotate(90 36.1091 49.9764)" stroke="#2D7255" stroke-width="1.45977"/>
<circle cx="36.1091" cy="63.1141" r="4.37931" transform="rotate(90 36.1091 63.1141)" stroke="#2D7255" stroke-width="1.45977"/>
<circle cx="36.1091" cy="76.2527" r="4.37931" transform="rotate(90 36.1091 76.2527)" stroke="#2D7255" stroke-width="1.45977"/>
<circle cx="89.3908" cy="36.8387" r="4.37931" transform="rotate(90 89.3908 36.8387)" stroke="#2D7255" stroke-width="1.45977"/>
<circle cx="89.3908" cy="49.9764" r="4.37931" transform="rotate(90 89.3908 49.9764)" stroke="#2D7255" stroke-width="1.45977"/>
<circle cx="89.3908" cy="63.1141" r="4.37931" transform="rotate(90 89.3908 63.1141)" stroke="#2D7255" stroke-width="1.45977"/>
<circle cx="89.3908" cy="76.2527" r="4.37931" transform="rotate(90 89.3908 76.2527)" stroke="#2D7255" stroke-width="1.45977"/>
<circle cx="76.2526" cy="90.1203" r="4.37931" transform="rotate(-180 76.2526 90.1203)" stroke="#2D7255" stroke-width="1.45977"/>
<circle cx="63.1149" cy="90.1203" r="4.37931" transform="rotate(-180 63.1149 90.1203)" stroke="#2D7255" stroke-width="1.45977"/>
<circle cx="49.9767" cy="90.1203" r="4.37931" transform="rotate(-180 49.9767 90.1203)" stroke="#2D7255" stroke-width="1.45977"/>
<rect x="44.8677" y="80.6318" width="49.6322" height="2.91954" transform="rotate(-90 44.8677 80.6318)" fill="#AFC3BB" fill-opacity="0.75"/>
<rect x="44.8677" y="77.7129" width="36.4943" height="2.91954" fill="#AFC3BB" fill-opacity="0.75"/>
<rect x="78.4424" y="80.6318" width="49.6322" height="2.91954" transform="rotate(-90 78.4424 80.6318)" fill="#AFC3BB" fill-opacity="0.75"/>
</svg>
