<svg width="78" height="41" viewBox="0 0 78 41" fill="none" xmlns="http://www.w3.org/2000/svg">
<path d="M47.8855 34.7146C43.4181 37.985 36.9409 39.7281 31.365 39.7281C23.5462 39.7281 16.5078 36.8571 11.1834 32.0842C10.7657 31.7075 11.1402 31.1959 11.6421 31.4895C17.3886 34.8085 24.4939 36.8053 31.8335 36.8053C36.7834 36.8053 42.2287 35.7875 47.2358 33.6784C47.9913 33.36 48.626 34.1695 47.8855 34.7146Z" fill="#737876"/>
<path d="M49.7417 32.608C49.1739 31.8838 45.9672 32.2659 44.5273 32.4353C44.0891 32.4882 44.0222 32.1094 44.4183 31.8374C46.9721 30.0532 51.161 30.5681 51.65 31.166C52.1389 31.7672 51.5226 35.9367 49.1243 37.927C48.7551 38.2325 48.4044 38.0695 48.5673 37.6648C49.107 36.3285 50.3137 33.3344 49.7417 32.608Z" fill="#737876"/>
<path d="M44.629 19.2412L44.629 17.5067C44.629 17.2434 44.8297 17.0685 45.0704 17.0685L52.8925 17.0685C53.1429 17.0685 53.3436 17.2477 53.3436 17.5067L53.3436 18.9908C53.3404 19.2402 53.1299 19.5661 52.7554 20.081L48.7014 25.8253C50.2081 25.7896 51.7969 26.0131 53.1634 26.7772C53.471 26.9499 53.5541 27.2014 53.5779 27.4508L53.5779 29.3018C53.5779 29.5544 53.2972 29.8501 53.0026 29.698C50.5956 28.4448 47.4008 28.3088 44.7391 29.7098C44.4671 29.8566 44.1832 29.5652 44.1832 29.3115L44.1832 27.5522C44.1832 27.2716 44.1865 26.7891 44.4714 26.3606L49.1666 19.6751L45.0812 19.6751C44.8297 19.6751 44.629 19.5003 44.629 19.2412ZM16.0964 30.0606L13.7165 30.0606C13.6094 30.0546 13.508 30.0109 13.4301 29.9372C13.3523 29.8635 13.3031 29.7646 13.2912 29.658L13.2912 17.5359C13.2912 17.2941 13.4963 17.1009 13.751 17.1009L15.9691 17.1009C16.0779 17.1055 16.1815 17.1492 16.2608 17.2239C16.34 17.2986 16.3898 17.3994 16.4008 17.5078L16.4008 19.0912L16.444 19.0912C17.0236 17.5607 18.1116 16.8462 19.5773 16.8462C21.0668 16.8462 21.9972 17.5607 22.6654 19.0912C23.2428 17.5607 24.551 16.8462 25.953 16.8462C26.9504 16.8462 28.0416 17.2552 28.7075 18.1727C29.4598 19.1916 29.3066 20.6735 29.3066 21.972L29.3033 29.6246C29.3021 29.7134 29.2742 29.7999 29.2232 29.8726C29.1722 29.9454 29.1004 30.0011 29.0173 30.0325C28.9624 30.0543 28.9036 30.0646 28.8446 30.0628L26.4701 30.0628C26.3567 30.0566 26.2499 30.0082 26.1705 29.927C26.0912 29.8459 26.0452 29.738 26.0416 29.6246L26.0416 23.1981C26.0416 22.6865 26.088 21.4118 25.9746 20.9261C25.7965 20.1123 25.2644 19.8824 24.5747 19.8824C23.9994 19.8824 23.3972 20.2645 23.1532 20.8754C22.9082 21.4874 22.932 22.5117 22.932 23.1981L22.932 29.6246C22.9314 29.6837 22.919 29.7421 22.8955 29.7964C22.872 29.8507 22.8379 29.8997 22.7951 29.9405C22.7524 29.9814 22.7018 30.0132 22.6466 30.0342C22.5913 30.0552 22.5323 30.0649 22.4732 30.0628L20.0965 30.0628C19.9831 30.0571 19.8761 30.0088 19.7968 29.9275C19.7176 29.8463 19.6719 29.738 19.6691 29.6246L19.6648 23.1981C19.6648 21.8468 19.8893 19.8565 18.2001 19.8565C16.4904 19.8565 16.5562 21.7971 16.5562 23.1981L16.5562 29.6246C16.5551 29.7134 16.5271 29.7999 16.4761 29.8726C16.4251 29.9454 16.3534 30.0011 16.2702 30.0325C16.2153 30.0543 16.1566 30.0646 16.0975 30.0628M60.0788 16.8451C63.6082 16.8451 65.5198 19.8554 65.5198 23.6817C65.5198 27.3795 63.4085 30.3143 60.0777 30.3143C56.6108 30.3143 54.7241 27.3029 54.7241 23.5532C54.7241 19.7788 56.6356 16.8451 60.0788 16.8451ZM60.0982 19.32C58.3432 19.32 58.2331 21.6924 58.2331 23.1701C58.2331 24.6531 58.2093 27.8156 60.0766 27.8156C61.9212 27.8156 62.0076 25.264 62.0076 23.7087C62.0076 22.6854 61.9644 21.4636 61.6524 20.4922C61.3859 19.6492 60.8537 19.32 60.0982 19.32ZM70.0973 30.0617L67.7302 30.0617C67.6169 30.0555 67.5101 30.0071 67.4307 29.926C67.3514 29.8448 67.3054 29.7369 67.3018 29.6235L67.2985 17.4959C67.3112 17.3844 67.3655 17.2818 67.4505 17.2086C67.5356 17.1354 67.6451 17.0969 67.7572 17.1009L69.9623 17.1009C70.0602 17.104 70.1543 17.1387 70.2308 17.1998C70.3072 17.2609 70.3619 17.3451 70.3865 17.4398L70.3865 19.293L70.4297 19.293C71.0967 17.6362 72.0304 16.8451 73.6742 16.8451C74.7417 16.8451 75.7822 17.2272 76.4525 18.2741C77.0742 19.2434 77.0742 20.8754 77.0742 22.0486L77.0742 29.6796C77.0569 29.788 77.0009 29.8865 76.9166 29.9568C76.8322 30.0271 76.7252 30.0644 76.6154 30.0617L74.2301 30.0617C74.1267 30.0558 74.0284 30.0147 73.9516 29.9452C73.8748 29.8756 73.8242 29.7819 73.8081 29.6796L73.8081 23.0945C73.8081 21.7691 73.9613 19.8284 72.3186 19.8284C71.74 19.8284 71.2068 20.2137 70.9424 20.7987C70.6078 21.5402 70.5646 22.2774 70.5646 23.0945L70.5646 29.6235C70.5607 29.7432 70.5095 29.8564 70.4224 29.9385C70.3352 30.0206 70.2191 30.0649 70.0994 30.0617M38.3936 24.271L38.3936 23.7594C36.6699 23.7594 34.8533 24.1253 34.8533 26.1383C34.8533 27.1582 35.3876 27.8479 36.3018 27.8479C36.9678 27.8479 37.5701 27.44 37.9489 26.7762C38.4173 25.958 38.3936 25.1906 38.3936 24.2721M40.793 30.0304C40.7162 30.0956 40.6214 30.1359 40.5211 30.1459C40.4209 30.1559 40.3199 30.1352 40.2317 30.0865C39.4406 29.4346 39.297 29.1324 38.8653 28.5107C37.5593 29.8339 36.6321 30.2279 34.944 30.2279C32.9375 30.2279 31.3822 29.0029 31.3822 26.5473C31.3822 24.6304 32.4259 23.3244 33.9186 22.6865C35.2106 22.122 37.0142 22.0227 38.3936 21.8662L38.3936 21.5608C38.3936 20.9984 38.4368 20.3346 38.1022 19.85C37.814 19.4139 37.2581 19.2348 36.767 19.2348C35.8604 19.2348 35.0541 19.6967 34.8566 20.653C34.8156 20.8657 34.658 21.0761 34.441 21.0848L32.1355 20.8387C31.9413 20.7966 31.7222 20.6401 31.7804 20.3443C32.3093 17.5672 34.8393 16.7285 37.1016 16.7285C38.2598 16.7285 39.773 17.0351 40.6861 17.905C41.8443 18.979 41.7331 20.4112 41.7331 21.9698L41.7331 25.6504C41.7331 26.7567 42.1951 27.2414 42.6311 27.8393C42.7811 28.0519 42.8146 28.3088 42.6203 28.4686C42.0065 28.9831 41.3985 29.5055 40.7962 30.0358L40.793 30.0304ZM7.19723 24.271L7.19723 23.7594C5.47675 23.7594 3.66021 24.1253 3.66021 26.1383C3.66021 27.1582 4.19233 27.8479 5.10653 27.8479C5.77465 27.8479 6.37369 27.44 6.75254 26.7762C7.22098 25.958 7.19723 25.1906 7.19723 24.2721M9.59662 30.0304C9.51981 30.0956 9.42498 30.1359 9.32473 30.1459C9.22448 30.1559 9.12356 30.1352 9.03536 30.0865C8.2442 29.4346 8.10496 29.1324 7.66891 28.5107C6.36397 29.8339 5.44005 30.2279 3.74764 30.2279C1.74545 30.2279 0.185791 29.0029 0.185791 26.5473C0.185791 24.6304 1.23276 23.3244 2.72226 22.6865C4.01424 22.122 5.8189 22.0227 7.19723 21.8662L7.19723 21.5608C7.19723 20.9984 7.2404 20.3346 6.90904 19.85C6.6187 19.4139 6.06284 19.2348 5.57389 19.2348C4.66724 19.2348 3.85773 19.6967 3.66021 20.653C3.61919 20.8657 3.46161 21.0761 3.2479 21.0848L0.938095 20.8387C0.743813 20.7966 0.531183 20.6401 0.584071 20.3443C1.11619 17.5672 3.64294 16.7285 5.90525 16.7285C7.06339 16.7285 8.57664 17.0351 9.49084 17.905C10.6479 18.979 10.5378 20.4112 10.5378 21.9698L10.5378 25.6504C10.5378 26.7567 10.9987 27.2414 11.4347 27.8393C11.588 28.0519 11.6226 28.3088 11.4283 28.4686C10.813 28.9831 10.205 29.5055 9.60417 30.0358L9.59662 30.0304Z" fill="#737876"/>
</svg>
