<svg width="33" height="41" viewBox="0 0 33 41" fill="none" xmlns="http://www.w3.org/2000/svg">
<g clip-path="url(#clip0_580_30168)">
<path d="M32.3081 36.0957L0.119629 36.0957L0.119629 4.0957L30.5005 4.0957L18.2173 19.8984L20.0659 19.8984L32.3081 4.0957L32.3081 36.0957Z" fill="#737876"/>
<path d="M10.7661 20.9941C10.7661 20.9941 10.8425 21.949 10.9146 22.1816C10.9788 22.3867 12.4865 27.3025 12.522 27.3555L13.355 26.2959L11.9302 21.9375C11.9302 21.9375 11.5965 21.117 11.4878 20.9941L14.3774 20.9941C14.3672 21.2578 14.3995 21.5216 14.4722 21.7754C14.5895 22.1345 15.2037 24.3393 15.2085 24.3564C15.2085 24.3564 17.178 21.9024 17.2944 21.7246C17.4344 21.5046 17.5178 21.2537 17.5376 20.9941L19.9458 20.9941C19.9458 20.9941 19.5043 21.314 18.7319 22.2852C18.4725 22.612 15.9302 25.8242 15.9302 25.8242C15.9302 25.8242 16.1521 26.5758 16.2603 26.9502C16.2897 27.0577 16.3101 27.1309 16.3101 27.1387C16.311 27.1408 16.3667 27.0721 16.4624 26.9502C17.1183 26.124 20.1023 22.2361 20.2837 21.9023C20.4295 21.6334 20.6432 21.327 20.769 20.9941L23.1187 20.9941C23.1191 20.9998 23.1724 21.6926 23.2437 21.8848L24.7144 26.9502C25.2754 28.5106 26.4314 32.5716 26.8911 32.8955L23.856 32.8955C23.8468 32.5365 23.799 32.179 23.7134 31.8301C23.5828 31.3673 22.4978 27.8968 22.4849 27.8555L17.6636 27.8555L16.9058 28.9229C16.9058 28.9229 17.816 31.7565 17.8726 31.8955C17.9707 32.1458 18.4058 32.8955 18.4058 32.8955L15.4966 32.8955C15.4966 32.8955 15.4213 32.4625 15.3931 32.2822C15.3702 32.1367 15.1191 31.3443 15.1177 31.3398C15.1126 31.3454 14.458 32.0588 14.2788 32.3906C14.0975 32.723 14.0171 32.8955 14.0171 32.8955L11.7417 32.8955C11.7417 32.8955 11.6655 32.4625 11.6372 32.2822C11.6149 32.1363 11.3364 31.2754 11.3364 31.2754C11.3364 31.2754 10.6994 32.0446 10.5181 32.377C10.3379 32.7099 10.2603 32.8955 10.2603 32.8955L8.01025 32.8955C8.01709 32.889 8.64752 32.2923 8.86865 32.0352C9.24348 31.5969 10.6401 29.7822 10.6401 29.7822L10.0796 27.8555L5.29541 27.8555C5.27243 27.8855 2.56655 31.4195 2.45947 31.5293C2.34955 31.6398 1.55633 32.7722 1.53857 32.8955L0.118652 32.8955L0.118652 31.998C0.136143 31.9791 0.154771 31.9612 0.174316 31.9443C0.218149 31.9123 2.24332 29.4135 4.10303 26.9502C5.77315 24.8035 7.33994 22.7157 7.479 22.5146C7.8105 22.036 8.28751 21.0049 8.29248 20.9941L10.7661 20.9941ZM13.0776 29.0234L13.6284 30.7178L14.5132 29.5098C14.4314 29.4216 13.9331 27.9199 13.9331 27.9199L13.0776 29.0234ZM8.8335 23.29C8.8335 23.251 8.82617 23.1876 8.78857 23.2686C8.44549 24.0023 6.43435 26.4377 6.41357 26.4629L9.62842 26.4629C9.61955 26.4357 9.00513 24.5535 8.89697 24.126C8.84145 23.8511 8.81999 23.5701 8.8335 23.29ZM21.1851 23.29C21.1851 23.251 21.1777 23.1873 21.1401 23.2686C20.7953 24.0061 18.7651 26.4629 18.7651 26.4629L21.98 26.4629C21.9694 26.4304 21.3566 24.553 21.2485 24.126C21.193 23.8511 21.1715 23.5701 21.1851 23.29Z" fill="white"/>
</g>
<defs>
<clipPath id="clip0_580_30168">
<rect width="32.1894" height="32" fill="white" transform="translate(0.118652 4.0957)"/>
</clipPath>
</defs>
</svg>
