<svg width="53" height="41" viewBox="0 0 53 41" fill="none" xmlns="http://www.w3.org/2000/svg">
<path fill-rule="evenodd" clip-rule="evenodd" d="M16.749 16.5836C19.7882 12.3756 26.1814 11.4054 30.4282 14.3067C29.7073 15.3555 29.0344 16.4391 28.3376 17.5053C26.2611 15.991 23.2473 15.9318 21.1701 17.4731C18.6846 19.1398 17.8308 22.7704 19.4524 25.3211C21.1642 28.3283 25.578 29.2902 28.2947 27.0655C30.6145 25.3873 30.6189 22.2974 31.4037 19.8057C32.3477 16.666 34.9117 13.9881 38.107 13.1266C40.9844 12.3392 44.2343 12.7417 46.7066 14.4655C45.9995 15.5213 45.3301 16.598 44.6437 17.6642C43.1722 16.5956 41.2171 16.1627 39.4499 16.6528C36.8152 17.3002 34.8796 19.9611 35.05 22.6654C35.0943 25.6696 37.7056 28.3954 40.7439 28.4099C43.2324 28.5628 45.4219 26.7182 46.1675 24.4198C44.2411 24.3842 42.3179 24.4073 40.395 24.3682C41.0549 23.1292 41.8903 21.9983 42.6396 20.8151C45.16 20.8403 47.684 20.8139 50.204 20.8875C50.6598 24.3705 49.3222 28.095 46.4612 30.2083C42.2811 33.5084 35.5727 32.3394 32.6399 27.9337C31.0457 30.0926 28.5955 31.6386 25.9112 31.9266C22.725 32.391 19.4005 31.1629 17.2323 28.7951C16.1768 30.3842 14.3783 31.4885 12.4447 31.5013C9.07461 31.5606 5.69424 31.5786 2.32543 31.4274C2.39306 25.2579 2.41931 19.0916 2.44212 12.9218C5.47363 12.9295 8.50488 12.9336 11.5361 12.9793C13.7662 13.0374 16.023 14.4111 16.749 16.5836ZM6.45055 16.4328C6.4876 17.7589 6.4625 19.0846 6.45109 20.4138C8.01161 20.4161 9.57213 20.4599 11.1328 20.4346C12.2062 20.4755 13.1962 19.4835 13.1129 18.4059C13.157 17.353 12.196 16.3979 11.1498 16.4261C9.58238 16.3892 8.01494 16.3765 6.45055 16.4328ZM6.44481 23.8146C6.41564 25.2335 6.41076 26.6491 6.41956 28.0681C8.20102 28.0649 9.9824 28.11 11.7606 28.0963C12.8202 28.1612 13.9054 27.415 14.0704 26.3421C14.3435 25.1457 13.3286 23.9416 12.1309 23.8863C10.2393 23.8059 8.33989 23.8776 6.44481 23.8146Z" fill="#737876"/>
</svg>
