<svg width="115" height="41" viewBox="0 0 115 41" fill="none" xmlns="http://www.w3.org/2000/svg">
<g clip-path="url(#clip0_580_30167)">
<path d="M12.7938 13.9199C8.33521 13.9199 4.65698 17.3303 4.65698 22.1233C4.65698 26.916 8.33521 30.3267 12.7938 30.3267C15.8479 30.3267 18.5454 28.6781 19.9275 26.1363L17.1632 24.5536C16.3607 26.203 14.7333 27.206 12.7938 27.206C10.0072 27.206 7.88956 25.1328 7.88956 22.1233C7.88956 19.1138 10.0072 17.0406 12.7938 17.0406C14.7333 17.0406 16.3607 18.0439 17.1632 19.6936L19.9275 18.1108C18.5454 15.5697 15.8479 13.9199 12.7938 13.9199ZM23.828 14.321L23.828 29.925L26.9493 29.925L26.9493 23.2377L34.7515 23.2377L34.7515 29.9255L37.8722 29.9255L37.8722 14.321L34.7515 14.321L34.7515 20.1171L26.9493 20.1171L26.9493 14.321L23.828 14.321ZM47.9039 14.321L40.9929 29.9255L44.4039 29.9255L45.9419 26.359L54.1005 26.359L55.639 29.9255L59.0495 29.9255L52.1396 14.321L47.9039 14.321ZM62.1707 14.321L62.1707 29.9255L65.0682 29.9255L65.0682 17.6426L73.4282 29.9255L76.2149 29.9255L76.2149 14.321L73.3169 14.321L73.3169 24.6649L66.2951 14.321L62.1707 14.321ZM82.233 14.321L82.233 29.9255L93.8256 29.9261L93.8256 27.0281L85.131 27.0281L85.131 23.4616L92.2647 23.4616L92.2647 20.563L85.131 20.563L85.131 17.2191L93.3791 17.2191L93.3791 14.3211L82.233 14.321ZM98.8412 14.321L98.8412 29.9255L98.8412 29.9261L110.211 29.9261L110.211 26.8055L101.962 26.8055L101.962 14.3211L98.8412 14.321ZM50.0215 16.8845L52.8529 23.461L47.19 23.461L50.0215 16.8845Z" fill="#737876"/>
</g>
<defs>
<clipPath id="clip0_580_30167">
<rect width="106.98" height="17.8332" fill="white" transform="translate(3.94385 13.207)"/>
</clipPath>
</defs>
</svg>
