<svg width="83" height="41" viewBox="0 0 83 41" fill="none" xmlns="http://www.w3.org/2000/svg">
<g clip-path="url(#clip0_580_30130)">
<path fill-rule="evenodd" clip-rule="evenodd" d="M0.194636 11.2261C0.194636 11.2261 0.270726 11.4706 0.341612 12.1645C0.42127 13.8928 0.417536 15.3249 0.418449 16.9218C0.431831 18.1549 0.412588 19.3564 0.395063 20.5133C0.383224 21.2968 0.37527 21.7239 0.371041 22.4362C0.358456 24.5561 0.181489 26.0409 0.181489 26.0409C0.181489 26.0409 1.74677 26.3875 4.11241 26.4015C6.47888 26.4156 8.99462 25.6116 10.4507 24.3915C11.9065 23.1716 13.2205 21.4207 13.2393 18.2653C13.258 15.1099 11.9164 13.3674 10.1367 12.2248C8.35642 11.0817 5.6295 10.8491 3.52822 10.9328C1.42745 11.0169 0.267309 11.2265 0.194636 11.2261ZM82.405 23.5901L79.249 22.8247C78.4149 23.6384 77.5164 24.0399 76.3661 24.0118C73.9974 23.9544 72.8284 22.5543 72.4043 20.2544L82.5926 20.3149C82.7422 19.4968 82.7949 18.6299 82.7518 17.8107C82.6648 16.156 82.1647 14.6305 81.1367 13.3207C80.1191 12.024 78.3594 11.3367 76.1785 11.3399C74.1307 11.3432 72.4529 12.0335 71.1196 13.43C69.8666 14.742 69.1093 16.7495 69.1284 19.3678C69.147 21.8551 69.7703 23.7107 71.3149 25.2346C72.3902 26.2956 73.8408 26.8675 75.7479 26.8747C79.3824 26.787 80.8993 25.6274 82.405 23.5901ZM79.8525 17.7456L72.5391 17.7022C72.6793 15.8157 74.4216 14.0682 76.2564 14.0878C78.1554 14.1078 79.7785 15.4727 79.8525 17.7456ZM47.8033 14.0272C50.2219 14.0416 52.1703 16.2377 52.1543 18.9314C52.1383 21.6251 50.164 23.798 47.7454 23.7836C45.3276 23.7693 43.3788 21.5731 43.3948 18.8794C43.4108 16.1857 45.3855 14.0129 47.8033 14.0272ZM47.9148 11.1075C51.9734 11.1316 55.2434 14.6693 55.218 18.9496C55.1926 23.2299 51.7869 26.6808 47.7283 26.6567C43.6705 26.6327 40.3999 23.142 40.4253 18.8617C40.4507 14.5815 43.857 11.0834 47.9148 11.1075ZM55.812 26.1784L59.0931 26.1979L59.1518 16.2974C62.1383 18.9411 64.3307 22.2545 65.635 26.2367L68.4535 26.2703L68.5398 11.728L65.398 11.7093L65.3523 18.834C64.3785 17.187 63.1821 15.8301 62.0048 14.6595C60.8256 13.4871 59.8681 12.4946 58.6723 11.6694L55.8982 11.6529L55.812 26.1784ZM27.1491 26.0083L30.3361 26.0272L30.3948 16.1267C33.3812 18.7704 35.527 22.0836 36.8312 26.0657L39.6801 26.0826L39.7663 11.5572L36.579 11.5382L36.5374 18.5468C34.7013 15.8738 32.472 13.4694 29.9157 11.4987L27.2353 11.4828L27.1491 26.0083ZM18.1333 11.4287L21.2237 11.4471C24.2049 14.7773 26.0132 19.606 26.5942 26.005L23.2378 25.985C23.1572 24.8738 23.0272 23.8521 22.8488 22.826L16.2234 22.7867C16.0333 23.809 15.8924 24.8289 15.8016 25.9409L12.5421 25.9215C13.1682 19.4912 15.1675 14.5248 18.1333 11.4287ZM22.2466 20.1016C21.5398 17.8016 20.6932 15.908 19.5426 14.1592C18.3788 15.901 17.465 17.867 16.8143 20.0693L22.2466 20.1016ZM3.53944 13.7753C3.53944 13.7753 4.18747 13.7549 4.98456 13.7597C5.78153 13.7644 7.5214 13.9193 8.79333 15.1796C10.0654 16.4399 10.0812 17.861 10.0753 18.8489C10.0695 19.8365 9.71652 21.9782 7.61009 22.9291C5.50404 23.8805 3.45754 23.507 3.45754 23.507L3.53944 13.7753Z" fill="#737876"/>
<path d="M40.3422 37.3954C36.4053 37.2287 32.3659 36.2443 28.2409 34.4466C26.5621 33.715 24.7875 32.8106 22.9823 31.7666C21.7918 31.0781 19.0671 29.3881 18.9157 29.2443C18.8205 29.1539 18.7835 29.0693 18.7842 28.9438C18.7856 28.7116 18.9535 28.5467 19.1867 28.5484C19.3077 28.5493 19.3368 28.5623 19.6213 28.7409C20.7631 29.4581 22.3436 30.2721 23.8842 30.9366C31.0597 34.0317 39.5758 35.1541 47.7633 34.0839C53.3548 33.353 58.7356 31.5972 62.9395 29.1318C63.546 28.776 63.6019 28.7575 63.7824 28.8519C64.0317 28.9822 64.0841 29.2981 63.8882 29.4899C63.8111 29.5654 63.7167 29.625 62.3366 30.4706C58.6558 32.7257 55.6861 34.2114 52.5964 35.3432C48.4407 36.8656 44.2812 37.5622 40.3422 37.3954Z" fill="#737876"/>
</g>
<defs>
<clipPath id="clip0_580_30130">
<rect width="82.6129" height="40" fill="white" transform="translate(0.237549) rotate(0.340123)"/>
</clipPath>
</defs>
</svg>
