<svg width="65" height="41" viewBox="0 0 65 41" fill="none" xmlns="http://www.w3.org/2000/svg">
<path d="M0.185059 8.85547L0.185059 26.559L2.46224 26.559L2.46224 18.106L7.93811 18.106L7.93811 15.9085L2.46224 15.9085L2.46224 11.0706L9.57732 11.0706L9.57732 8.85547L0.185059 8.85547ZM13.6975 12.4529C14.5216 12.4529 15.1861 11.7883 15.1861 10.9643C15.1861 10.1403 14.5127 9.56432 13.6975 9.56432C12.8823 9.56432 12.2089 10.2289 12.2089 11.0529C12.2089 11.4516 12.3684 11.8238 12.652 12.1162C12.9355 12.4086 13.3076 12.5592 13.7152 12.5592L13.6975 12.4529ZM12.5456 14.6858L12.5456 26.559L14.7342 26.559L14.7342 14.6858L12.4747 14.6858L12.5456 14.6858ZM23.2847 14.3313C20.2544 14.3313 18.1455 16.9895 18.1455 19.9313C18.1455 22.873 20.2721 25.5134 23.2847 25.5134C23.9116 25.5244 24.5339 25.4048 25.112 25.1623C25.6901 24.9197 26.2115 24.5595 26.6429 24.1046L26.6429 25.6818C26.6365 26.6294 26.269 27.5389 25.6151 28.2248C25.2847 28.5618 24.8904 28.8295 24.4552 29.0121C24.0201 29.1946 23.5528 29.2885 23.0809 29.2881C22.3563 29.2652 21.6541 29.0311 21.0607 28.6147L19.9088 30.5906C20.7934 31.1595 21.815 31.4793 22.8661 31.5163C23.9172 31.5534 24.9588 31.3063 25.8812 30.8011C26.8037 30.2959 27.5728 29.5512 28.1076 28.6456C28.6424 27.74 28.9231 26.7069 28.9201 25.6552L28.9201 14.668L26.6429 14.668L26.6429 15.7313C26.2115 15.2764 25.6901 14.9162 25.112 14.6736C24.5339 14.4311 23.9116 14.3204 23.2847 14.3313ZM20.4316 19.9313C20.3797 19.3552 20.4899 18.7761 20.7499 18.2594C21.0098 17.7427 21.409 17.309 21.9025 17.0072C22.9126 16.387 24.1796 16.387 25.1809 17.0072C26.1821 17.6275 26.7492 18.7616 26.6518 19.9313C26.7036 20.5073 26.5934 21.0864 26.3335 21.6031C26.0736 22.1198 25.6743 22.5535 25.1809 22.8553C24.1708 23.4755 22.9037 23.4755 21.9025 22.8553C20.9012 22.235 20.3341 21.1009 20.4316 19.9313Z" fill="#737876"/>
<path d="M37.1343 16.6547C36.4794 16.657 35.8519 16.9182 35.3888 17.3813C34.9257 17.8444 34.6645 18.4719 34.6622 19.1268L34.6622 26.6406L32.385 26.6406L32.385 14.7674L34.6622 14.7674L34.6622 15.7686C35.3533 14.8471 36.452 14.3155 37.6039 14.3332C39.0571 14.2977 40.4127 15.0775 41.1304 16.3446C42.0165 15.1041 43.2924 14.3509 44.6747 14.3332C47.2709 14.3332 48.8835 16.4243 48.8924 19.0116L48.8924 26.5697L46.6152 26.5697L46.6152 19.0382C46.6819 18.569 46.6129 18.0906 46.4163 17.6594C46.2197 17.2282 45.9037 16.8624 45.5057 16.6052C45.1077 16.3479 44.6444 16.21 44.1705 16.2078C43.6966 16.2056 43.2321 16.3391 42.8317 16.5927C42.4335 16.8522 42.1183 17.2207 41.9236 17.6542C41.7288 18.0878 41.6626 18.5681 41.733 19.0382L41.733 26.552L39.5444 26.552L39.5444 19.047C39.5421 18.3921 39.2809 17.7647 38.8177 17.3016C38.3546 16.8385 37.7272 16.5773 37.0723 16.5749L37.1343 16.6547ZM61.058 16.0344C60.5397 15.4936 59.9162 15.0644 59.226 14.7734C58.5357 14.4824 57.7932 14.3356 57.0441 14.3421C53.6505 14.3421 51.2847 17.2129 51.2847 20.5445C51.2847 23.8761 53.6771 26.7469 57.0441 26.7469C57.7932 26.7534 58.5357 26.6066 59.226 26.3156C59.9162 26.0245 60.5397 25.5954 61.058 25.0545L61.058 26.4014L63.3352 26.4014L63.3352 14.5281L61.058 14.5281L61.058 16.0344ZM53.5265 20.642C53.4113 19.2243 54.1024 17.8597 55.3163 17.1154C56.5302 16.3711 57.9745 16.3711 59.2681 17.1154C59.8606 17.4832 60.3408 18.0065 60.6564 18.6283C60.9721 19.2501 61.1109 19.9466 61.058 20.642C61.1732 22.0597 60.4821 23.4242 59.2681 24.1685C58.0542 24.9128 56.61 24.9128 55.3163 24.1685C54.7238 23.8007 54.2436 23.2775 53.928 22.6556C53.6124 22.0338 53.4735 21.3373 53.5265 20.642Z" fill="#737876"/>
</svg>
