<svg width="105" height="40" viewBox="0 0 105 40" fill="none" xmlns="http://www.w3.org/2000/svg">
<g clip-path="url(#clip0_580_30148)">
<path d="M105.13 18.9318L105.13 17.082L102.833 17.082L102.833 14.207L102.756 14.2316L100.6 14.8888L100.558 14.8888L100.558 17.0656L97.1545 17.0656L97.1545 15.8498C97.1545 15.2913 97.2859 14.8559 97.5323 14.5684C97.7788 14.2809 98.1402 14.1372 98.5838 14.1372C98.9123 14.1372 99.2573 14.2193 99.5859 14.3672L99.668 14.4L99.668 12.4606L99.6352 12.4442C99.323 12.3333 98.8959 12.2758 98.3702 12.2758C97.7048 12.2758 97.097 12.4237 96.563 12.7145C96.0291 12.9937 95.6102 13.4127 95.3227 13.9384C95.027 14.4641 94.8791 15.072 94.8791 15.7373L94.8791 17.068L93.2855 17.068L93.2855 18.9162L94.8873 18.9162L94.8873 26.7034L97.1791 26.7034L97.1791 18.9162L100.586 18.9162L100.586 23.8612C100.586 25.8984 101.543 26.9334 103.444 26.9334C103.756 26.9334 104.085 26.8939 104.413 26.8266C104.754 26.7527 104.988 26.6787 105.12 26.6048L105.153 26.5884L105.153 24.7237L105.06 24.7862C104.937 24.8683 104.781 24.9398 104.6 24.9891C104.419 25.0383 104.263 25.0712 104.146 25.0712C103.703 25.0712 103.374 24.9562 103.172 24.7204C102.964 24.4863 102.86 24.0715 102.86 23.4883L102.86 18.9376L105.144 18.9376L105.139 18.9261L105.13 18.9318ZM88.1344 25.0761C87.3023 25.0761 86.6451 24.7993 86.1794 24.2547C85.7169 23.7084 85.4811 22.9289 85.4811 21.9383C85.4811 20.9164 85.7169 20.1147 86.1818 19.5594C86.6451 19.0074 87.2957 18.7265 88.1171 18.7265C88.9139 18.7265 89.5382 18.9943 89.9982 19.5233C90.4582 20.0556 90.6882 20.8491 90.6882 21.8824C90.6882 22.9289 90.4746 23.7331 90.0475 24.2703C89.6203 24.8042 88.9796 25.0753 88.1418 25.0753M88.2403 16.8503C86.655 16.8503 85.3916 17.3153 84.4913 18.2336C83.596 19.1536 83.1376 20.4236 83.1376 22.0122C83.1376 23.5236 83.5812 24.7352 84.4626 25.6183C85.3415 26.5054 86.5383 26.9654 88.0169 26.9654C89.5546 26.9654 90.7933 26.489 91.6903 25.5649C92.5939 24.635 93.0424 23.375 93.0424 21.8249C93.0424 20.2921 92.6152 19.0682 91.7692 18.1942C90.9231 17.312 89.737 16.8668 88.237 16.8668M79.4313 16.8668C78.347 16.8668 77.4566 17.1428 76.7699 17.6882C76.0865 18.2369 75.7349 18.9532 75.7349 19.8239C75.7349 20.279 75.8121 20.6782 75.9616 21.0232C76.1095 21.3633 76.3395 21.6639 76.6467 21.9169C76.9506 22.1633 77.4188 22.4262 78.0431 22.6956C78.5688 22.9092 78.9549 23.0899 79.2046 23.2378C79.451 23.375 79.6252 23.5171 79.7139 23.6542C79.8125 23.7857 79.8618 23.9746 79.8618 24.1964C79.8618 24.8486 79.3787 25.1624 78.3832 25.1624C78.0119 25.1624 77.5897 25.0852 77.128 24.9324C76.6623 24.7812 76.2302 24.5627 75.8409 24.2818L75.7423 24.2161L75.7423 26.4175L75.7751 26.4339C76.1037 26.5818 76.5087 26.7132 76.9909 26.8118C77.4714 26.9186 77.9109 26.9679 78.2887 26.9679C79.4634 26.9679 80.408 26.6886 81.098 26.1432C81.788 25.5912 82.1412 24.8535 82.1412 23.9549C82.1412 23.3059 81.9523 22.7474 81.5785 22.2997C81.2089 21.8512 80.5682 21.4421 79.6704 21.0807C78.9615 20.7932 78.5039 20.555 78.3068 20.3743C78.1261 20.1968 78.0415 19.9471 78.0415 19.6317C78.0415 19.3524 78.1565 19.1273 78.3906 18.9466C78.6255 18.7618 78.9541 18.6698 79.3648 18.6698C79.7467 18.6698 80.1369 18.7273 80.5312 18.8464C80.9173 18.968 81.2582 19.1257 81.5416 19.3196L81.6377 19.3853L81.6377 17.2824L81.6048 17.266C81.3379 17.151 80.9912 17.0549 80.5698 16.9785C80.1509 16.8988 79.7706 16.8635 79.4404 16.8635M69.7475 25.086C68.9179 25.086 68.2607 24.8116 67.8007 24.2646C67.3325 23.7224 67.0984 22.9421 67.0984 21.9481C67.0984 20.9296 67.3333 20.1246 67.7999 19.5717C68.2599 19.0197 68.9121 18.7388 69.7303 18.7388C70.527 18.7388 71.1595 19.0066 71.6154 19.5356C72.0689 20.0695 72.3054 20.863 72.3054 21.8964C72.3054 22.9412 72.0836 23.7446 71.6565 24.2826C71.2376 24.8166 70.5969 25.0876 69.7508 25.0876M69.8658 16.8651C68.2722 16.8651 67.0072 17.3284 66.1119 18.2468C65.2108 19.1668 64.7565 20.4359 64.7565 22.0253C64.7565 23.5368 65.2001 24.7476 66.0732 25.6314C66.9538 26.5186 68.1482 26.9786 69.6259 26.9786C71.1702 26.9786 72.4024 26.5021 73.3059 25.5739C74.2046 24.6424 74.6613 23.3823 74.6613 21.8323C74.6613 20.2987 74.2341 19.0748 73.3963 18.2016C72.5502 17.3186 71.3624 16.8733 69.8641 16.8733M61.2901 18.7692L61.2901 17.0935L59.0229 17.0935L59.0229 26.7288L61.2901 26.7288L61.2901 21.8003C61.2901 20.9624 61.479 20.2724 61.8544 19.7508C62.224 19.2317 62.7169 18.9787 63.3165 18.9787C63.5219 18.9787 63.7519 19.0115 64.0049 19.0772C64.2513 19.143 64.4288 19.2087 64.5306 19.2908L64.6292 19.3565L64.6292 17.073L64.593 17.0565C64.3795 16.9612 64.0838 16.9152 63.7059 16.9152C63.1391 16.9152 62.6298 17.0992 62.1928 17.4574C61.8067 17.7761 61.5299 18.2098 61.318 18.752L61.2769 18.752L61.2975 18.7684L61.2901 18.7692ZM54.9486 16.8635C53.9054 16.8635 52.9772 17.0812 52.1886 17.5206C51.3935 17.9642 50.784 18.5885 50.3651 19.3935C49.9544 20.1903 49.7408 21.1226 49.7408 22.1617C49.7408 23.0735 49.9478 23.9064 50.3486 24.6441C50.7544 25.3833 51.3261 25.9583 52.049 26.3608C52.7669 26.7576 53.6015 26.9605 54.5248 26.9605C55.6025 26.9605 56.5209 26.7469 57.2601 26.3198L57.293 26.3033L57.293 24.2235L57.1944 24.2917C56.8601 24.5381 56.488 24.7311 56.0855 24.8708C55.6846 25.0104 55.3199 25.0811 55.0012 25.0811C54.1091 25.0811 53.3961 24.8018 52.877 24.2555C52.3513 23.6969 52.0884 22.9248 52.0884 21.9555C52.0884 20.9698 52.3677 20.1812 52.9066 19.6062C53.4487 19.0148 54.1617 18.7191 55.0341 18.7191C55.7734 18.7191 56.502 18.9737 57.1887 19.4666L57.2872 19.5323L57.2872 17.3473L57.2601 17.3309C57.0014 17.183 56.6498 17.068 56.2087 16.9744C55.7766 16.884 55.3511 16.8397 54.9454 16.8397M48.185 17.0697L45.9211 17.0697L45.9211 26.7132L48.1883 26.7132L48.1883 17.0697L48.185 17.0697ZM47.0679 12.9707C46.6949 12.9707 46.3696 13.0972 46.1019 13.3486C45.8341 13.6016 45.6977 13.9187 45.6977 14.2932C45.6977 14.6629 45.8349 14.975 46.1002 15.2215C46.3631 15.4679 46.6916 15.5895 47.0695 15.5895C47.4474 15.5895 47.7759 15.4662 48.0429 15.2198C48.3123 14.9734 48.4487 14.6612 48.4487 14.2916C48.4487 13.9302 48.3173 13.618 48.0544 13.3552C47.7915 13.1087 47.463 12.9773 47.0687 12.9773M41.409 16.3698L41.409 26.7198L43.7255 26.7198L43.7255 13.2821L40.5219 13.2821L36.4616 23.269L32.5105 13.2804L29.1804 13.2804L29.1804 26.7288L31.3572 26.7288L31.3572 16.383L31.4311 16.383L35.604 26.7313L37.2428 26.7313L41.3499 16.3838L41.4279 16.3838L41.4156 16.3788L41.409 16.3698ZM11.7801 20.5509L22.4422 20.5509L22.4422 31.2221L11.7637 31.2221L11.7785 20.5583L11.7801 20.5509ZM0.00328572 20.5575L10.6638 20.5575L10.6638 31.2221L2.5099e-09 31.2221L0.00328572 20.5575ZM11.7809 8.78063L22.4431 8.78063L22.4431 19.4428L11.7744 19.4428L11.7809 8.77734L11.7809 8.78063ZM0.00328571 8.77899L10.6638 8.77899L10.6638 19.4428L1.19267e-09 19.4428L0.00328571 8.77734L0.00328571 8.77899Z" fill="#737876"/>
</g>
<defs>
<clipPath id="clip0_580_30148">
<rect width="105" height="40" fill="white"/>
</clipPath>
</defs>
</svg>
