<svg width="109" height="40" viewBox="0 0 109 40" fill="none" xmlns="http://www.w3.org/2000/svg">
<g clip-path="url(#clip0_580_30146)">
<path fill-rule="evenodd" clip-rule="evenodd" d="M0.332571 28.0809L0.332571 24.8323C2.18057 25.4135 3.81943 25.704 5.24229 25.704C7.20514 25.704 8.19086 25.1872 8.19086 24.1483C8.19086 23.7626 8.04943 23.4386 7.76057 23.1712C7.46657 22.8926 6.71486 22.5069 5.50971 22.0097C3.34629 21.1183 1.93286 20.3606 1.27714 19.7332C0.423429 18.9095 7.31726e-10 17.8637 5.89866e-10 16.5952C4.08325e-10 14.9717 0.617143 13.7289 1.85743 12.8795C3.08571 12.0335 4.68 11.6092 6.64886 11.6092C7.73314 11.6092 9.30257 11.8115 11.3546 12.2117L11.3546 15.3369C9.82886 14.7257 8.40857 14.4197 7.10057 14.4197C5.256 14.4197 4.332 14.9289 4.332 15.9455C4.332 16.3226 4.51629 16.6337 4.88914 16.8729C5.20029 17.07 6.05314 17.4772 7.44686 18.1037C9.45257 18.9952 10.7897 19.7709 11.4566 20.4283C12.2477 21.2126 12.6429 22.2249 12.6429 23.4626C12.6429 25.2472 11.8671 26.604 10.3149 27.5426C9.06086 28.3012 7.43314 28.68 5.43429 28.68C3.74571 28.68 2.04514 28.4837 0.332571 28.0809ZM97.2 28.0723L97.2 24.7697C99.0634 25.3595 100.725 25.6543 102.192 25.6543C104.187 25.6543 105.19 25.1229 105.19 24.0686C105.19 23.67 105.047 23.34 104.762 23.0743C104.464 22.7872 103.699 22.3972 102.465 21.8915C100.273 20.9932 98.8363 20.22 98.1591 19.5729C97.2934 18.7415 96.8563 17.6735 96.8563 16.3757C96.8563 14.7249 97.482 13.47 98.7506 12.606C99.9934 11.7489 101.622 11.3203 103.619 11.3203C104.742 11.3203 106.201 11.5003 107.991 11.8552L108.405 11.928L108.405 15.1037C106.845 14.4823 105.399 14.1729 104.06 14.1729C102.191 14.1729 101.262 14.6897 101.262 15.7243C101.262 16.1066 101.445 16.4212 101.825 16.6672C102.122 16.8557 102.995 17.2757 104.435 17.9186C106.46 18.8255 107.812 19.6132 108.498 20.2826C109.291 21.0652 109.691 22.074 109.703 23.3049L109.703 23.4506C109.677 25.2223 108.897 26.574 107.352 27.5135C106.071 28.2823 104.406 28.6706 102.378 28.6706C100.659 28.6706 98.9263 28.4675 97.1889 28.062L97.2 28.0723ZM23.8646 28.3483L23.8646 11.898L35.6486 11.898L35.6486 14.8723L28.2943 14.8723L28.2943 18.5872L34.6971 18.5872L34.6971 21.3009L28.2943 21.3009L28.2943 25.206L35.8406 25.206L35.8406 28.3466L23.8646 28.3466L23.8646 28.3483ZM15.0549 11.898L19.6517 11.898L19.6517 28.3466L15.0549 28.3466L15.0549 11.898ZM64.1829 28.338L64.1829 11.6126L76.164 11.6126L76.164 14.6383L68.6829 14.6383L68.6829 18.4183L75.1971 18.4183L75.1971 21.1749L68.6829 21.1749L68.6829 25.146L76.3577 25.146L76.3577 28.3397L64.1829 28.3397L64.1829 28.338ZM79.4349 28.338L79.4349 11.6126L84.8477 11.6126L90.5906 22.8095L90.5906 11.6135L93.882 11.6135L93.882 28.3406L88.6191 28.3406L82.722 16.992L82.722 28.3406L79.4306 28.3406L79.4349 28.338ZM39.564 28.338L39.564 11.6126L45.624 11.6126L49.8309 22.2995L54.1457 11.6126L59.8997 11.6126L59.8997 28.3397L55.4683 28.3397L55.4683 16.4975L50.5629 28.5095L47.6683 28.5095L42.8571 16.4975L42.8571 28.3397L39.5657 28.3397L39.564 28.338Z" fill="#737876"/>
</g>
<defs>
<clipPath id="clip0_580_30146">
<rect width="109" height="40" fill="white"/>
</clipPath>
</defs>
</svg>
