<svg width="71" height="41" viewBox="0 0 71 41" fill="none" xmlns="http://www.w3.org/2000/svg">
<g clip-path="url(#clip0_580_30171)">
<path d="M6.08521 11.293L6.08521 23.3199C6.08521 27.8488 9.24355 30.8422 13.3625 30.8422C15.3662 30.8422 17.1516 30.0757 18.4421 28.7318L18.4421 30.5172L21.2948 30.5172L21.2948 11.293L18.413 11.293L18.413 23.1501C18.413 26.1993 16.3511 28.2588 13.69 28.2588C10.9974 28.2588 8.96944 26.2527 8.96944 23.1501L8.96944 11.2954L6.08521 11.2954L6.08521 11.293ZM24.1329 11.293L24.1329 30.5172L26.874 30.5172L26.874 28.7585C28.1379 30.049 29.9232 30.8447 31.8711 30.8447C32.8352 30.8536 33.7915 30.6713 34.6847 30.3083C35.5779 29.9453 36.3902 29.4087 37.0746 28.7297C37.7591 28.0506 38.3021 27.2426 38.6722 26.3523C39.0423 25.4621 39.2322 24.5072 39.2309 23.5431C39.2354 22.5767 39.048 21.619 38.6796 20.7255C38.3112 19.8321 37.7691 19.0206 37.0847 18.3383C36.4003 17.6559 35.5873 17.1162 34.6927 16.7505C33.7982 16.3847 32.8399 16.2002 31.8735 16.2076C30.9476 16.2064 30.0308 16.3906 29.1772 16.7493C28.3235 17.108 27.5503 17.634 26.9031 18.2962L26.9031 11.2954L24.1305 11.2954L24.1329 11.293ZM48.0728 16.2367C43.9805 16.2367 40.8804 19.56 40.8804 23.514C40.8804 27.6863 44.1164 30.8155 48.3178 30.8155C50.8721 30.8155 52.9583 29.6924 54.358 27.8246L52.3543 26.3424C51.3112 27.7421 49.9382 28.3971 48.3178 28.3971C45.9575 28.3971 44.0654 26.699 43.6797 24.4188L55.0736 24.4188L55.0736 23.514C55.0736 19.3417 52.1093 16.2367 48.0728 16.2367ZM63.343 16.4016C61.8051 16.4016 60.6795 17.1148 59.993 18.2404L59.993 16.5108L57.2495 16.5108L57.2495 30.5172L60.0197 30.5172L60.0197 22.5485C60.0197 20.3799 61.3393 18.9827 63.1514 18.9827L64.3036 18.9827L64.3036 16.3992L63.343 16.3992L63.343 16.4016ZM48.0146 18.6527C50.0765 18.6527 51.8085 20.0791 52.2742 22.2186L43.7331 22.2186C44.2255 20.0791 45.9551 18.6527 48.0146 18.6527ZM31.6843 18.6819C34.3187 18.6819 36.4873 20.8238 36.4873 23.5431C36.4925 24.8232 35.9898 26.0531 35.0894 26.9631C34.189 27.873 32.9644 28.3887 31.6843 28.3971C31.0474 28.3983 30.4166 28.2735 29.8282 28.0298C29.2398 27.7861 28.7055 27.4283 28.256 26.9771C27.8066 26.5258 27.4509 25.99 27.2096 25.4007C26.9682 24.8113 26.8459 24.18 26.8498 23.5431C26.8453 22.9059 26.967 22.2741 27.2079 21.6842C27.4488 21.0943 27.8041 20.5579 28.2533 20.106C28.7025 19.6541 29.2368 19.2956 29.8252 19.0511C30.4137 18.8067 31.0447 18.6812 31.6819 18.6819L31.6843 18.6819Z" fill="#737876"/>
</g>
<defs>
<clipPath id="clip0_580_30171">
<rect width="59" height="30" fill="white" transform="translate(5.69434 5.17773)"/>
</clipPath>
</defs>
</svg>
