<svg preserveAspectRatio="none" width="100%" height="100%" overflow="visible" style="display: block;" viewBox="0 0 33.61 33.61" fill="none" xmlns="http://www.w3.org/2000/svg">
<g id="restaurant">
<path id="Vector" d="M4.20121 16.8046V23.8067M4.20121 23.8067H7.00204C8.98253 23.8067 9.97277 23.8067 10.588 24.4219C11.2033 25.0373 11.2033 26.0275 11.2033 28.008V29.4084M4.20121 23.8067V29.4084" stroke="var(--stroke-0, #141B34)" stroke-width="1.64755" stroke-linecap="round" stroke-linejoin="round"/>
<g id="Vector_2">
<path d="M5.60163 9.80224L13.0472 5.71786C14.8911 4.70634 15.8132 4.20058 16.805 4.20058C17.7967 4.20058 18.7188 4.70634 20.5627 5.71786L28.0083 9.80224" fill="var(--fill-0, #2D7255)"/>
<path d="M5.60163 9.80224L13.0472 5.71786C14.8911 4.70634 15.8132 4.20058 16.805 4.20058C17.7967 4.20058 18.7188 4.70634 20.5627 5.71786L28.0083 9.80224" stroke="var(--stroke-0, #2D7255)" stroke-width="1.64755" stroke-linecap="round" stroke-linejoin="round"/>
</g>
<path id="Vector_3" d="M25.2075 8.40255V14.0042M8.40245 8.40255V14.0042" stroke="var(--stroke-0, #2D7255)" stroke-width="1.64755" stroke-linecap="round" stroke-linejoin="round"/>
<path id="Vector_4" d="M29.4087 16.8046V23.8067M29.4087 23.8067H26.6079C24.6274 23.8067 23.6372 23.8067 23.0218 24.4219C22.4066 25.0373 22.4066 26.0275 22.4066 28.008V29.4084M29.4087 23.8067V29.4084" stroke="var(--stroke-0, #141B34)" stroke-width="1.64755" stroke-linecap="round" stroke-linejoin="round"/>
<path id="Vector_5" d="M9.80287 19.6053H16.805M16.805 19.6053H23.807M16.805 19.6053V29.4083M16.805 29.4083H15.4045M16.805 29.4083H18.2054" stroke="var(--stroke-0, #141B34)" stroke-width="1.64755" stroke-linecap="round" stroke-linejoin="round"/>
</g>
</svg>
