<svg preserveAspectRatio="none" width="100%" height="100%" overflow="visible" style="display: block;" viewBox="0 0 16 16" fill="none" xmlns="http://www.w3.org/2000/svg">
<g id="bed-double">
<path id="Vector" d="M14.6673 11.6667H1.33398" stroke="var(--stroke-0, #212724)" stroke-linecap="round" stroke-linejoin="round"/>
<path id="Vector_2" d="M14.6673 14V10.6667C14.6673 9.4096 14.6673 8.78107 14.2768 8.39053C13.8863 8 13.2577 8 12.0007 8H4.00065C2.74357 8 2.11503 8 1.72451 8.39053C1.33398 8.78107 1.33398 9.4096 1.33398 10.6667V14" stroke="var(--stroke-0, #212724)" stroke-linecap="round" stroke-linejoin="round"/>
<path id="Vector_3" d="M7.33333 8V6.80893C7.33333 6.55515 7.2952 6.47027 7.0998 6.37025C6.693 6.16195 6.1991 6 5.66667 6C5.13423 6 4.64037 6.16195 4.2335 6.37025C4.03814 6.47027 4 6.55515 4 6.80893V8" stroke="var(--stroke-0, #212724)" stroke-linecap="round"/>
<path id="Vector_4" d="M11.9993 8V6.80893C11.9993 6.55515 11.9612 6.47027 11.7658 6.37025C11.359 6.16195 10.8651 6 10.3327 6C9.80022 6 9.30635 6.16195 8.89955 6.37025C8.70415 6.47027 8.66602 6.55515 8.66602 6.80893V8" stroke="var(--stroke-0, #212724)" stroke-linecap="round"/>
<path id="Vector_5" d="M14 8V4.90705C14 4.44595 14 4.21541 13.8719 3.99769C13.7438 3.77997 13.5613 3.66727 13.1963 3.44189C11.7246 2.53319 9.93287 2 8 2C6.06711 2 4.27543 2.53319 2.80372 3.44189C2.43869 3.66727 2.25618 3.77997 2.12809 3.99769C2 4.21541 2 4.44595 2 4.90705V8" stroke="var(--stroke-0, #212724)" stroke-linecap="round"/>
</g>
</svg>
