<svg preserveAspectRatio="none" width="100%" height="100%" overflow="visible" style="display: block;" viewBox="0 0 10.0465 10.0465" fill="none" xmlns="http://www.w3.org/2000/svg">
<g id="star">
<path id="Vector" d="M5.74629 1.44185L6.48295 2.92736C6.58341 3.13414 6.85128 3.33249 7.07732 3.37047L8.41251 3.59414C9.26638 3.73763 9.4673 4.36221 8.852 4.97836L7.81398 6.02495C7.63817 6.20219 7.54193 6.54402 7.59631 6.78882L7.89352 8.08441C8.1279 9.1099 7.58794 9.50661 6.68806 8.97063L5.43656 8.22368C5.21056 8.08863 4.83804 8.08863 4.60781 8.22368L3.35633 8.97063C2.46062 9.50661 1.91649 9.10568 2.15089 8.08441L2.44806 6.78882C2.50247 6.54402 2.40621 6.20219 2.23041 6.02495L1.19239 4.97836C0.58129 4.36221 0.778014 3.73763 1.63187 3.59414L2.96707 3.37047C3.18891 3.33249 3.45679 3.13414 3.55724 2.92736L4.2939 1.44185C4.69571 0.635801 5.34865 0.635801 5.74629 1.44185Z" fill="var(--fill-0, #FBC14D)"/>
</g>
</svg>
