<svg preserveAspectRatio="none" width="100%" height="100%" overflow="visible" style="display: block;" viewBox="0 0 31.6597 31.6597" fill="none" xmlns="http://www.w3.org/2000/svg">
<g id="computer-desk-01">
<path id="Vector" d="M29.0214 15.8304H2.63831" stroke="var(--stroke-0, #141B34)" stroke-width="1.46573" stroke-linecap="round" stroke-linejoin="round"/>
<path id="Vector_2" d="M26.3831 22.4262H21.1065C18.6191 22.4262 17.3754 22.4262 16.6026 21.6534C15.8298 20.8807 15.8298 19.637 15.8298 17.1496V15.8304" stroke="var(--stroke-0, #141B34)" stroke-width="1.46573" stroke-linecap="round" stroke-linejoin="round"/>
<path id="Vector_3" d="M5.27662 15.8304V27.2631M26.3831 15.8304V27.2631" stroke="var(--stroke-0, #141B34)" stroke-width="1.46573" stroke-linecap="round" stroke-linejoin="round"/>
<path id="Vector_4" d="M9.96694 9.0456V7.95677C9.96694 6.41694 9.96694 5.64702 10.4563 5.16866C10.9458 4.6903 11.7334 4.6903 13.3088 4.6903H17.7646C19.34 4.6903 20.1276 4.6903 20.6171 5.16866C21.1065 5.64702 21.1065 6.41694 21.1065 7.95677V9.0456C21.1065 10.5854 21.1065 11.3553 20.6171 11.8337C20.1276 12.3121 19.34 12.3121 17.7646 12.3121H13.3088C11.7334 12.3121 10.9458 12.3121 10.4563 11.8337C9.96694 11.3553 9.96694 10.5854 9.96694 9.0456Z" stroke="var(--stroke-0, #141B34)" stroke-width="1.46573" stroke-linecap="round" stroke-linejoin="round"/>
<path id="Vector_5" d="M17.0757 12.3122L17.5887 15.8299M13.9977 12.3122L13.4847 15.8299" stroke="var(--stroke-0, #141B34)" stroke-width="1.46573" stroke-linecap="round" stroke-linejoin="round"/>
</g>
</svg>
