<svg preserveAspectRatio="none" width="100%" height="100%" overflow="visible" style="display: block;" viewBox="0 0 24.4729 24.4729" fill="none" xmlns="http://www.w3.org/2000/svg">
<g id="basketball-hoop">
<g id="Vector">
<path d="M5.09852 17.3347C4.45802 17.1972 3.95548 16.9766 3.53065 16.6228C3.32412 16.4508 3.13475 16.2585 2.96526 16.049C2.03941 14.9041 2.03941 13.203 2.03941 9.80081C2.03941 6.39866 2.03941 4.69758 2.96526 3.55264C3.13475 3.34304 3.32412 3.15085 3.53065 2.97883C4.6588 2.03921 6.33493 2.03921 9.68718 2.03921H14.7857C18.138 2.03921 19.814 2.03921 20.9422 2.97883C21.1487 3.15085 21.3381 3.34304 21.5076 3.55264C22.4335 4.69758 22.4335 6.39866 22.4335 9.80081C22.4335 13.203 22.4335 14.9041 21.5076 16.049C21.3381 16.2585 21.1487 16.4508 20.9422 16.6228C20.5173 16.9766 20.0148 17.1972 19.3744 17.3347" fill="var(--fill-0, #EFF1F3)"/>
<path d="M5.09852 17.3347C4.45802 17.1972 3.95548 16.9766 3.53065 16.6228C3.32412 16.4508 3.13475 16.2585 2.96526 16.049C2.03941 14.9041 2.03941 13.203 2.03941 9.80081C2.03941 6.39866 2.03941 4.69758 2.96526 3.55264C3.13475 3.34304 3.32412 3.15085 3.53065 2.97883C4.6588 2.03921 6.33493 2.03921 9.68718 2.03921H14.7857C18.138 2.03921 19.814 2.03921 20.9422 2.97883C21.1487 3.15085 21.3381 3.34304 21.5076 3.55264C22.4335 4.69758 22.4335 6.39866 22.4335 9.80081C22.4335 13.203 22.4335 14.9041 21.5076 16.049C21.3381 16.2585 21.1487 16.4508 20.9422 16.6228C20.5173 16.9766 20.0148 17.1972 19.3744 17.3347" stroke="var(--stroke-0, #141B34)" stroke-width="1.49225" stroke-linecap="round"/>
</g>
<line id="Line 471" x1="11.93" y1="14.3672" x2="11.93" y2="6.36719" stroke="var(--stroke-0, black)" stroke-opacity="0.21"/>
</g>
</svg>
