<svg preserveAspectRatio="none" width="100%" height="100%" overflow="visible" style="display: block;" viewBox="0 0 10.0465 10.0465" fill="none" xmlns="http://www.w3.org/2000/svg">
<g id="star">
<path id="Vector" d="M5.74619 1.44171L6.48285 2.92721C6.58332 3.134 6.85118 3.33235 7.07723 3.37033L8.41241 3.59399C9.26628 3.73748 9.46721 4.36207 8.8519 4.97821L7.81389 6.02481C7.63807 6.20205 7.54184 6.54388 7.59621 6.78868L7.89342 8.08426C8.1278 9.10976 7.58784 9.50647 6.68797 8.97049L5.43646 8.22353C5.21046 8.08849 4.83794 8.08849 4.60771 8.22353L3.35624 8.97049C2.46052 9.50647 1.9164 9.10553 2.15079 8.08426L2.44797 6.78868C2.50238 6.54388 2.40611 6.20205 2.23031 6.02481L1.19229 4.97821C0.581194 4.36207 0.777918 3.73748 1.63177 3.59399L2.96698 3.37033C3.18881 3.33235 3.45669 3.134 3.55714 2.92721L4.2938 1.44171C4.69562 0.635657 5.34856 0.635657 5.74619 1.44171Z" fill="var(--fill-0, #FBC14D)"/>
</g>
</svg>
