<svg preserveAspectRatio="none" width="100%" height="100%" overflow="visible" style="display: block;" viewBox="0 0 26.8871 26.8871" fill="none" xmlns="http://www.w3.org/2000/svg">
<g id="bed-double">
<path id="Vector" d="M24.6466 19.6055H2.24064" stroke="var(--stroke-0, #141B34)" stroke-width="1.52768" stroke-linecap="round" stroke-linejoin="round"/>
<path id="Vector_2" d="M24.6466 23.526V17.9246C24.6466 15.8121 24.6466 14.7559 23.9903 14.0996C23.3341 13.4434 22.2778 13.4434 20.1654 13.4434H6.72184C4.60938 13.4434 3.55315 13.4434 2.89691 14.0996C2.24065 14.7559 2.24065 15.8121 2.24065 17.9246V23.526" stroke="var(--stroke-0, #141B34)" stroke-width="1.52768" stroke-linecap="round" stroke-linejoin="round"/>
<path id="Vector_3" d="M23.5263 13.4432V8.24569C23.5263 7.47085 23.5263 7.08343 23.3111 6.71756C23.0958 6.35169 22.7891 6.16232 22.1757 5.78357C19.7026 4.25655 16.6917 3.36056 13.4436 3.36056C10.1955 3.36056 7.18466 4.25655 4.71154 5.78357C4.09813 6.16232 3.79143 6.35169 3.57617 6.71756C3.36093 7.08343 3.36093 7.47085 3.36093 8.24569V13.4432" stroke="var(--stroke-0, #141B34)" stroke-width="1.52768" stroke-linecap="round"/>
<path id="Vector_4" d="M12.3233 13.4434V11.4419C12.3233 11.0154 12.2592 10.8728 11.9309 10.7047C11.2473 10.3546 10.4173 10.0825 9.52257 10.0825C8.62785 10.0825 7.79793 10.3546 7.11421 10.7047C6.78592 10.8728 6.72183 11.0154 6.72183 11.4419V13.4434" stroke="var(--stroke-0, #141B34)" stroke-width="1.52768" stroke-linecap="round"/>
<path id="Vector_5" d="M20.1654 13.4434V11.4419C20.1654 11.0154 20.1013 10.8728 19.7729 10.7047C19.0893 10.3546 18.2594 10.0825 17.3646 10.0825C16.4699 10.0825 15.6399 10.3546 14.9563 10.7047C14.628 10.8728 14.5639 11.0154 14.5639 11.4419V13.4434" stroke="var(--stroke-0, #141B34)" stroke-width="1.52768" stroke-linecap="round"/>
</g>
</svg>
