<svg preserveAspectRatio="none" width="100%" height="100%" overflow="visible" style="display: block;" viewBox="0 0 17.9248 17.9248" fill="none" xmlns="http://www.w3.org/2000/svg">
<g id="bed-double">
<path id="Vector" d="M16.4311 13.0703H1.49375" stroke="var(--stroke-0, #141B34)" stroke-width="1.01845" stroke-linecap="round" stroke-linejoin="round"/>
<path id="Vector_2" d="M16.4311 15.684V11.9497C16.4311 10.5414 16.4311 9.83727 15.9935 9.39975C15.556 8.96224 14.8519 8.96224 13.4436 8.96224H4.48121C3.07291 8.96224 2.36876 8.96224 1.93126 9.39975C1.49375 9.83727 1.49375 10.5414 1.49375 11.9497V15.684" stroke="var(--stroke-0, #141B34)" stroke-width="1.01845" stroke-linecap="round" stroke-linejoin="round"/>
<path id="Vector_3" d="M15.6842 8.96218V5.49715C15.6842 4.98059 15.6842 4.72231 15.5407 4.4784C15.3971 4.23449 15.1927 4.10824 14.7837 3.85574C13.135 2.83772 11.1278 2.2404 8.96237 2.2404C6.79696 2.2404 4.78974 2.83772 3.14099 3.85574C2.73205 4.10824 2.52758 4.23449 2.38408 4.4784C2.24058 4.72231 2.24058 4.98059 2.24058 5.49715V8.96218" stroke="var(--stroke-0, #141B34)" stroke-width="1.01845" stroke-linecap="round"/>
<path id="Vector_4" d="M8.21551 8.96227V7.62793C8.21551 7.34361 8.17279 7.24853 7.95388 7.13647C7.49814 6.90311 6.94483 6.72168 6.34834 6.72168C5.75186 6.72168 5.19858 6.90311 4.74277 7.13647C4.52391 7.24853 4.48118 7.34361 4.48118 7.62793V8.96227" stroke="var(--stroke-0, #141B34)" stroke-width="1.01845" stroke-linecap="round"/>
<path id="Vector_5" d="M13.4436 8.96227V7.62793C13.4436 7.34361 13.4009 7.24853 13.1819 7.13647C12.7262 6.90311 12.1729 6.72168 11.5764 6.72168C10.9799 6.72168 10.4266 6.90311 9.97088 7.13647C9.75197 7.24853 9.70925 7.34361 9.70925 7.62793V8.96227" stroke="var(--stroke-0, #141B34)" stroke-width="1.01845" stroke-linecap="round"/>
</g>
</svg>
