<svg preserveAspectRatio="none" width="100%" height="100%" overflow="visible" style="display: block;" viewBox="0 0 38.3258 12.0881" fill="none" xmlns="http://www.w3.org/2000/svg">
<g id="Group 1597884216">
<path id="Vector" d="M9.33541 3.86004C9.33541 2.18997 7.98156 0.836111 6.31148 0.836111C4.64141 0.836111 3.28755 2.18997 3.28755 3.86004C3.28755 5.53012 4.64141 6.88398 6.31148 6.88398C7.98156 6.88398 9.33541 5.53012 9.33541 3.86004Z" fill="var(--fill-0, #2D7255)" stroke="var(--stroke-0, #2D7255)" stroke-width="1.67222" stroke-linecap="round" stroke-linejoin="round"/>
<path id="Vector_2" d="M35.4221 3.86004C35.4221 2.18997 34.0682 0.836111 32.3981 0.836111C30.7281 0.836111 29.3742 2.18997 29.3742 3.86004C29.3742 5.53012 30.7281 6.88398 32.3981 6.88398C34.0682 6.88398 35.4221 5.53012 35.4221 3.86004Z" fill="var(--fill-0, #2D7255)" stroke="var(--stroke-0, #2D7255)" stroke-width="1.67222" stroke-linecap="round" stroke-linejoin="round"/>
<path id="Vector_3" d="M12.3267 12.0881C12.3267 8.99366 9.56729 6.48507 6.16333 6.48507C2.75941 6.48507 0 8.99366 0 12.0881" fill="var(--fill-0, #2D7255)"/>
<path id="Vector_4" d="M38.3258 12.0881C38.3258 8.99366 35.5664 6.48507 32.1625 6.48507C28.7586 6.48507 25.9991 8.99366 25.9991 12.0881" fill="var(--fill-0, #2D7255)"/>
<path id="Vector_5" d="M37.15 11.2039C37.15 8.8181 35.0225 6.88399 32.3981 6.88399C29.7737 6.88399 27.6462 8.8181 27.6462 11.2039" fill="var(--fill-0, #2D7255)"/>
</g>
</svg>
