<svg preserveAspectRatio="none" width="100%" height="100%" overflow="visible" style="display: block;" viewBox="0 0 10.0465 10.0465" fill="none" xmlns="http://www.w3.org/2000/svg">
<g id="star">
<path id="Vector" d="M5.74638 1.44171L6.48304 2.92721C6.58351 3.134 6.85137 3.33235 7.07742 3.37033L8.4126 3.59399C9.26647 3.73748 9.4674 4.36207 8.85209 4.97821L7.81408 6.02481C7.63827 6.20205 7.54203 6.54388 7.59641 6.78868L7.89361 8.08426C8.12799 9.10976 7.58803 9.50647 6.68816 8.97049L5.43666 8.22353C5.21065 8.08849 4.83814 8.08849 4.6079 8.22353L3.35643 8.97049C2.46071 9.50647 1.91659 9.10553 2.15098 8.08426L2.44816 6.78868C2.50257 6.54388 2.4063 6.20205 2.2305 6.02481L1.19248 4.97821C0.581386 4.36207 0.77811 3.73748 1.63197 3.59399L2.96717 3.37033C3.189 3.33235 3.45688 3.134 3.55734 2.92721L4.29399 1.44171C4.69581 0.635657 5.34875 0.635657 5.74638 1.44171Z" fill="var(--fill-0, #FBC14D)"/>
</g>
</svg>
