<svg preserveAspectRatio="none" width="100%" height="100%" overflow="visible" style="display: block;" viewBox="0 0 20.8727 19.0902" fill="none" xmlns="http://www.w3.org/2000/svg">
<g id="Group 40933">
<path id="Vector" d="M8.49769 3.31122C5.88368 5.1368 5.24139 8.7488 7.06722 11.3632L7.11476 11.4312L8.95273 10.1476L8.9052 10.0796C7.78717 8.47867 8.18006 6.26713 9.78114 5.14896C11.3822 4.03079 13.5938 4.42341 14.7118 6.02428L14.7594 6.09235L16.5973 4.80874L16.5498 4.74067C14.724 2.12631 11.1124 1.48516 8.49769 3.31122Z" fill="var(--fill-0, #28292C)"/>
<path id="Vector_2" d="M11.9669 9.01058C13.0849 10.6115 12.692 12.823 11.0909 13.9412C9.48984 15.0593 7.27825 14.6667 6.16023 13.0658L6.11269 12.9978L4.27472 14.2814L4.32225 14.3495C6.14808 16.9638 9.75969 17.605 12.3744 15.7789C14.9891 13.9529 15.6307 10.3413 13.8048 7.72696L13.7573 7.6589L11.9193 8.94251L11.9669 9.01058Z" fill="var(--fill-0, #28292C)"/>
<path id="Vector_3" d="M1.83797 6.87744L0 8.16106L3.86795 13.6995L5.70592 12.4159L1.83797 6.87744Z" fill="var(--fill-0, #28292C)"/>
<path id="Vector_4" d="M17.0048 5.39072L15.1668 6.67433L19.0347 12.2128L20.8727 10.9291L17.0048 5.39072Z" fill="var(--fill-0, #28292C)"/>
</g>
</svg>
