<svg preserveAspectRatio="none" width="100%" height="100%" overflow="visible" style="display: block;" viewBox="0 0 14.0007 15.3333" fill="none" xmlns="http://www.w3.org/2000/svg">
<path id="Vector" d="M11.4729 1.99689C10.2113 1.36921 8.6676 1 7.00033 1C5.33306 1 3.78933 1.36921 2.52777 1.99689C1.90912 2.30471 1.59979 2.45861 1.30006 2.94252C1.00033 3.42643 1.00033 3.89499 1.00033 4.83209V7.15807C1.00033 10.947 4.02857 13.0536 5.78233 13.9559C6.27146 14.2075 6.516 14.3333 7.00033 14.3333C7.48466 14.3333 7.7292 14.2075 8.21826 13.9559C9.97206 13.0536 13.0003 10.947 13.0003 7.15807V4.83209C13.0003 3.89499 13.0003 3.42644 12.7006 2.94252C12.4009 2.45861 12.0915 2.30471 11.4729 1.99689Z" stroke="var(--stroke-0, #141B34)" stroke-width="2" stroke-linecap="round" stroke-linejoin="round"/>
</svg>
