<svg preserveAspectRatio="none" width="100%" height="100%" overflow="visible" style="display: block;" viewBox="0 0 118 154" fill="none" xmlns="http://www.w3.org/2000/svg">
<g id="Frame 1597884181">
<rect width="118" height="154" rx="4.1519" fill="var(--fill-0, white)"/>
<rect id="Rectangle 5059" x="12.4557" y="20.38" width="93.0886" height="4.47273" rx="2.23636" fill="var(--fill-0, #F2F2F2)"/>
<rect id="Rectangle 5060" x="12.4557" y="30.0426" width="93.0886" height="4.47273" rx="2.23636" fill="var(--fill-0, #F2F2F2)"/>
<rect id="Rectangle 5063" x="12.4557" y="39.7052" width="93.0886" height="4.47273" rx="2.23636" fill="var(--fill-0, #F2F2F2)"/>
<rect id="Rectangle 5064" x="12.4557" y="49.3678" width="93.0886" height="4.47273" rx="2.23636" fill="var(--fill-0, #F2F2F2)"/>
<rect id="Rectangle 5065" x="12.4557" y="59.0304" width="93.0886" height="4.47273" rx="2.23636" fill="var(--fill-0, #F2F2F2)"/>
<rect id="Rectangle 5066" x="12.4557" y="68.693" width="93.0886" height="4.47273" rx="2.23636" fill="var(--fill-0, #F2F2F2)"/>
<rect id="Rectangle 5067" x="12.4557" y="78.3556" width="93.0886" height="4.47273" rx="2.23636" fill="var(--fill-0, #F2F2F2)"/>
<rect id="Rectangle 5068" x="12.4557" y="88.0182" width="93.0886" height="4.47273" rx="2.23636" fill="var(--fill-0, #F2F2F2)"/>
<rect id="Rectangle 5069" x="12.4557" y="97.6808" width="50" height="5" rx="2.5" fill="var(--fill-0, #F2F2F2)"/>
<path id="Vector 3" d="M92.7028 133.324C91.6048 132.274 87.1825 125.887 83.2012 119.867C81.9384 117.958 81.4169 118.965 80.7747 121.418C80.1325 123.871 79.1817 127.891 79.5992 130.023C81.2552 138.483 99.5172 130.707 101.973 129.506C102.545 129.226 95.5744 128.81 86.4861 128.81C77.3876 128.81 72.9858 131.696 73.4947 131.639C74.4589 131.53 76.6746 130.443 81.7362 129.088C86.7979 127.733 94.5917 125.934 98.8393 124.884C103.087 123.834 103.552 123.586 104.032 123.332" stroke="var(--stroke-0, black)" stroke-linecap="round"/>
</g>
</svg>
