<svg width="89" height="21" viewBox="0 0 89 21" fill="none" xmlns="http://www.w3.org/2000/svg">
<g clip-path="url(#clip0_250_691)">
<path d="M8.93399 2C4.00843 2 0 6.01407 0 10.9494V11.0779H3.46329V10.9494C3.46329 7.9273 5.91709 5.46926 8.93399 5.46926C11.9509 5.46926 14.4047 7.9273 14.4047 10.9494V11.0779H17.868V10.9494C17.868 6.01407 13.8608 2 8.93399 2Z" fill="#2D7255"/>
<path d="M17.8922 10.9477C17.8922 13.9698 15.4384 16.4278 12.4215 16.4278C9.40455 16.4278 6.95075 13.9698 6.95075 10.9477V10.8192H3.48747V10.9477C3.48747 15.883 7.49462 19.8971 12.4215 19.8971C17.3483 19.8971 21.3555 15.883 21.3555 10.9477V10.8192H17.8922V10.9477Z" fill="#2D7255"/>
<path d="M29.0901 17.3784V5.54488H31.3397L31.574 6.73994H31.6912C31.988 6.36502 32.4332 6.03696 33.0268 5.75577C33.6361 5.45896 34.3391 5.31055 35.1358 5.31055C36.0262 5.31055 36.8229 5.52144 37.5259 5.94323C38.2445 6.3494 38.8069 6.93521 39.213 7.70068C39.6192 8.45053 39.8223 9.30972 39.8223 10.2783V17.3784H37.2213V10.5595C37.2213 10.0283 37.1041 9.55186 36.8698 9.13007C36.6355 8.70828 36.3074 8.38023 35.8856 8.1459C35.4794 7.89595 35.0264 7.77098 34.5265 7.77098C33.9954 7.77098 33.5111 7.89595 33.0737 8.1459C32.6519 8.39585 32.316 8.73172 32.0661 9.1535C31.8161 9.57529 31.6912 10.0439 31.6912 10.5595V17.3784H29.0901Z" fill="#212724"/>
<path d="M45.14 17.6127C44.2808 17.6127 43.531 17.4565 42.8905 17.144C42.25 16.816 41.7579 16.3786 41.4142 15.8318C41.0706 15.285 40.8987 14.6602 40.8987 13.9572C40.8987 13.1917 41.0706 12.5278 41.4142 11.9654C41.7735 11.3874 42.3125 10.9344 43.0311 10.6063C43.7497 10.2783 44.6401 10.1142 45.7024 10.1142H48.6081V9.83305C48.6081 9.13007 48.3972 8.56769 47.9754 8.1459C47.5536 7.72411 46.9834 7.51322 46.2648 7.51322C45.8118 7.51322 45.4134 7.59133 45.0697 7.74755C44.7261 7.88814 44.4605 8.0756 44.273 8.30993C44.0856 8.54426 43.9606 8.7942 43.8981 9.05977H41.3205C41.383 8.41928 41.6095 7.81003 42.0001 7.23203C42.4062 6.65402 42.9686 6.19318 43.6872 5.8495C44.4214 5.4902 45.2806 5.31055 46.2648 5.31055C47.2646 5.31055 48.1316 5.50582 48.8658 5.89637C49.6157 6.27129 50.1937 6.80243 50.5998 7.48979C51.006 8.16152 51.2091 8.94261 51.2091 9.83305V17.3784H48.9596L48.7252 16.1599H48.6081C48.3425 16.5348 47.8973 16.8706 47.2724 17.1675C46.6475 17.4643 45.9367 17.6127 45.14 17.6127ZM45.4915 15.4569C46.132 15.4569 46.6866 15.3397 47.1552 15.1054C47.6239 14.8554 47.9832 14.5039 48.2331 14.0509C48.4831 13.5979 48.6081 13.0746 48.6081 12.4809V12.0826H45.9133C45.101 12.0826 44.4917 12.2466 44.0856 12.5747C43.695 12.8871 43.4997 13.2933 43.4997 13.7932C43.4997 14.2931 43.6716 14.6992 44.0153 15.0117C44.3589 15.3085 44.851 15.4569 45.4915 15.4569Z" fill="#212724"/>
<path d="M59.1035 17.6127C58.3068 17.6127 57.6116 17.4643 57.018 17.1675C56.4244 16.8706 55.9245 16.4645 55.5183 15.949H55.4011L55.1668 17.3784H52.9173V0.975464H55.5183V6.90392H55.6355C56.0104 6.43527 56.4947 6.05253 57.0883 5.75572C57.6819 5.45891 58.3537 5.3105 59.1035 5.3105C60.1189 5.3105 61.0406 5.57607 61.8686 6.10721C62.7121 6.62273 63.3761 7.34914 63.8603 8.28645C64.3446 9.20813 64.5867 10.2704 64.5867 11.4733C64.5867 12.6606 64.3446 13.7229 63.8603 14.6602C63.3761 15.5975 62.7121 16.3239 61.8686 16.8394C61.0406 17.3549 60.1189 17.6127 59.1035 17.6127ZM58.752 15.2225C59.3456 15.2225 59.8846 15.0663 60.3689 14.7539C60.8531 14.4415 61.2437 14.0041 61.5405 13.4417C61.8373 12.8637 61.9857 12.2075 61.9857 11.4733C61.9857 10.7235 61.8373 10.0674 61.5405 9.50494C61.2593 8.94256 60.8688 8.50515 60.3689 8.19272C59.8846 7.88028 59.3456 7.72406 58.752 7.72406C58.1584 7.72406 57.6116 7.88028 57.1117 8.19272C56.6275 8.50515 56.2369 8.94256 55.9401 9.50494C55.6589 10.0674 55.5183 10.7235 55.5183 11.4733C55.5183 12.2075 55.6667 12.8637 55.9635 13.4417C56.2603 14.0041 56.6509 14.4415 57.1352 14.7539C57.6194 15.0663 58.1584 15.2225 58.752 15.2225Z" fill="#212724"/>
<path d="M70.8542 17.6127C69.7451 17.6127 68.7375 17.3549 67.8314 16.8394C66.9254 16.3083 66.2146 15.574 65.6991 14.6367C65.1992 13.6994 64.9492 12.645 64.9492 11.4733C64.9492 10.2861 65.1992 9.23161 65.6991 8.30993C66.2146 7.37262 66.9254 6.6384 67.8314 6.10726C68.7375 5.57612 69.7451 5.31055 70.8542 5.31055C71.979 5.31055 72.9866 5.57612 73.8771 6.10726C74.7831 6.6384 75.4939 7.37262 76.0094 8.30993C76.5249 9.23161 76.7827 10.2861 76.7827 11.4733C76.7827 12.645 76.5249 13.6994 76.0094 14.6367C75.4939 15.574 74.7831 16.3083 73.8771 16.8394C72.9866 17.3549 71.979 17.6127 70.8542 17.6127ZM70.8542 15.1991C71.4635 15.1991 72.0181 15.0507 72.518 14.7539C73.0335 14.4415 73.4396 14.0041 73.7365 13.4417C74.0333 12.8637 74.1817 12.2075 74.1817 11.4733C74.1817 10.7391 74.0333 10.0908 73.7365 9.52843C73.4396 8.95042 73.0335 8.5052 72.518 8.19277C72.0181 7.88033 71.4635 7.72411 70.8542 7.72411C70.245 7.72411 69.6826 7.88033 69.1671 8.19277C68.6672 8.5052 68.2688 8.95042 67.972 9.52843C67.6752 10.0908 67.5268 10.7391 67.5268 11.4733C67.5268 12.2075 67.6752 12.8637 67.972 13.4417C68.2688 14.0041 68.6672 14.4415 69.1671 14.7539C69.6826 15.0507 70.245 15.1991 70.8542 15.1991Z" fill="#212724"/>
<path d="M83.0639 17.6127C81.9548 17.6127 80.9472 17.3549 80.0411 16.8394C79.1351 16.3083 78.4243 15.574 77.9087 14.6367C77.4088 13.6994 77.1589 12.645 77.1589 11.4733C77.1589 10.2861 77.4088 9.23161 77.9087 8.30993C78.4243 7.37262 79.1351 6.6384 80.0411 6.10726C80.9472 5.57612 81.9548 5.31055 83.0639 5.31055C84.1887 5.31055 85.1963 5.57612 86.0867 6.10726C86.9928 6.6384 87.7036 7.37262 88.2191 8.30993C88.7346 9.23161 88.9924 10.2861 88.9924 11.4733C88.9924 12.645 88.7346 13.6994 88.2191 14.6367C87.7036 15.574 86.9928 16.3083 86.0867 16.8394C85.1963 17.3549 84.1887 17.6127 83.0639 17.6127ZM83.0639 15.1991C83.6732 15.1991 84.2277 15.0507 84.7276 14.7539C85.2432 14.4415 85.6493 14.0041 85.9461 13.4417C86.243 12.8637 86.3914 12.2075 86.3914 11.4733C86.3914 10.7391 86.243 10.0908 85.9461 9.52843C85.6493 8.95042 85.2432 8.5052 84.7276 8.19277C84.2277 7.88033 83.6732 7.72411 83.0639 7.72411C82.4547 7.72411 81.8923 7.88033 81.3768 8.19277C80.8769 8.5052 80.4785 8.95042 80.1817 9.52843C79.8849 10.0908 79.7365 10.7391 79.7365 11.4733C79.7365 12.2075 79.8849 12.8637 80.1817 13.4417C80.4785 14.0041 80.8769 14.4415 81.3768 14.7539C81.8923 15.0507 82.4547 15.1991 83.0639 15.1991Z" fill="#212724"/>
</g>
<defs>
<clipPath id="clip0_250_691">
<rect width="89" height="21" fill="white"/>
</clipPath>
</defs>
</svg>
