<svg preserveAspectRatio="none" width="100%" height="100%" overflow="visible" style="display: block;" viewBox="0 0 20 20" fill="none" xmlns="http://www.w3.org/2000/svg">
<g id="bed-double">
<path id="Vector" d="M18.3341 14.5834H1.66748" stroke="var(--stroke-0, #212724)" stroke-width="1.25" stroke-linecap="round" stroke-linejoin="round"/>
<path id="Vector_2" d="M18.3341 17.5V13.3333C18.3341 11.762 18.3341 10.9763 17.846 10.4882C17.3578 10 16.5721 10 15.0008 10H5.00081C3.42946 10 2.64379 10 2.15564 10.4882C1.66748 10.9763 1.66748 11.762 1.66748 13.3333V17.5" stroke="var(--stroke-0, #212724)" stroke-width="1.25" stroke-linecap="round" stroke-linejoin="round"/>
<path id="Vector_3" d="M9.16667 10V8.51117C9.16667 8.19393 9.119 8.08784 8.87475 7.96282C8.36625 7.70243 7.74887 7.5 7.08333 7.5C6.41779 7.5 5.80046 7.70243 5.29187 7.96282C5.04767 8.08784 5 8.19393 5 8.51117V10" stroke="var(--stroke-0, #212724)" stroke-width="1.25" stroke-linecap="round"/>
<path id="Vector_4" d="M14.9992 10V8.51117C14.9992 8.19393 14.9515 8.08784 14.7073 7.96282C14.1988 7.70243 13.5814 7.5 12.9159 7.5C12.2503 7.5 11.6329 7.70243 11.1244 7.96282C10.8802 8.08784 10.8325 8.19393 10.8325 8.51117V10" stroke="var(--stroke-0, #212724)" stroke-width="1.25" stroke-linecap="round"/>
<path id="Vector_5" d="M17.5 10V6.13381C17.5 5.55744 17.5 5.26926 17.3399 4.99711C17.1797 4.72496 16.9517 4.58409 16.4953 4.30236C14.6557 3.16648 12.4161 2.5 10 2.5C7.58389 2.5 5.34428 3.16648 3.50465 4.30236C3.04837 4.58409 2.82023 4.72496 2.66011 4.99711C2.5 5.26926 2.5 5.55744 2.5 6.13381V10" stroke="var(--stroke-0, #212724)" stroke-width="1.25" stroke-linecap="round"/>
</g>
</svg>
