<svg preserveAspectRatio="none" width="100%" height="100%" overflow="visible" style="display: block;" viewBox="0 0 10.0465 10.0465" fill="none" xmlns="http://www.w3.org/2000/svg">
<g id="star">
<path id="Vector" d="M5.74609 1.44185L6.48275 2.92736C6.58322 3.13414 6.85108 3.33249 7.07713 3.37047L8.41231 3.59414C9.26618 3.73763 9.46711 4.36221 8.85181 4.97836L7.81379 6.02495C7.63798 6.20219 7.54174 6.54402 7.59612 6.78882L7.89333 8.08441C8.1277 9.1099 7.58774 9.50661 6.68787 8.97063L5.43637 8.22368C5.21036 8.08863 4.83785 8.08863 4.60761 8.22368L3.35614 8.97063C2.46042 9.50661 1.9163 9.10568 2.15069 8.08441L2.44787 6.78882C2.50228 6.54402 2.40601 6.20219 2.23022 6.02495L1.19219 4.97836C0.581098 4.36221 0.777822 3.73763 1.63168 3.59414L2.96688 3.37047C3.18872 3.33249 3.45659 3.13414 3.55705 2.92736L4.2937 1.44185C4.69552 0.635801 5.34846 0.635801 5.74609 1.44185Z" fill="var(--fill-0, #FBC14D)"/>
</g>
</svg>
