<svg preserveAspectRatio="none" width="100%" height="100%" overflow="visible" style="display: block;" viewBox="0 0 25.0751 10.9153" fill="none" xmlns="http://www.w3.org/2000/svg">
<g id="Group 1597884217">
<path id="Vector" d="M24.3375 0.737517C21.7921 2.87211 17.4572 4.27752 12.5375 4.27752C7.61787 4.27752 3.28298 2.87211 0.737517 0.737517" stroke="var(--stroke-0, #2D7255)" stroke-width="1.475" stroke-linecap="round" stroke-linejoin="round"/>
<g id="Vector_2">
<path d="M10.1776 4.27777V10.1778L12.5376 8.40777L14.8976 10.1778V4.27777" fill="var(--fill-0, #2D7255)"/>
<path d="M10.1776 4.27777V10.1778L12.5376 8.40777L14.8976 10.1778V4.27777" stroke="var(--stroke-0, #2D7255)" stroke-width="1.475" stroke-linecap="round" stroke-linejoin="round"/>
</g>
<g id="Vector_3">
<path d="M2.50754 2.50753L0.737544 8.40649L3.68754 7.2275L5.45754 9.58753L7.22754 4.27752" fill="var(--fill-0, #2D7255)"/>
<path d="M2.50754 2.50753L0.737544 8.40649L3.68754 7.2275L5.45754 9.58753L7.22754 4.27752" stroke="var(--stroke-0, #2D7255)" stroke-width="1.475" stroke-linecap="round" stroke-linejoin="round"/>
</g>
<g id="Vector_4">
<path d="M22.5676 2.50753L24.3376 8.40654L21.3876 7.22754L19.6176 9.58753L17.8476 4.27754" fill="var(--fill-0, #2D7255)"/>
<path d="M22.5676 2.50753L24.3376 8.40654L21.3876 7.22754L19.6176 9.58753L17.8476 4.27754" stroke="var(--stroke-0, #2D7255)" stroke-width="1.475" stroke-linecap="round" stroke-linejoin="round"/>
</g>
</g>
</svg>
