<svg preserveAspectRatio="none" width="100%" height="100%" overflow="visible" style="display: block;" viewBox="0 0 20 20" fill="none" xmlns="http://www.w3.org/2000/svg">
<g id="calendar-03">
<path id="Vector" d="M13.3333 1.66667V5M6.66667 1.66667V5" stroke="var(--stroke-0, #212724)" stroke-width="1.25" stroke-linecap="round" stroke-linejoin="round"/>
<path id="Vector_2" d="M10.8333 3.33333H9.16667C6.02397 3.33333 4.45262 3.33333 3.47631 4.30964C2.5 5.28596 2.5 6.8573 2.5 10V11.6667C2.5 14.8093 2.5 16.3807 3.47631 17.357C4.45262 18.3333 6.02397 18.3333 9.16667 18.3333H10.8333C13.976 18.3333 15.5474 18.3333 16.5237 17.357C17.5 16.3807 17.5 14.8093 17.5 11.6667V10C17.5 6.8573 17.5 5.28596 16.5237 4.30964C15.5474 3.33333 13.976 3.33333 10.8333 3.33333Z" stroke="var(--stroke-0, #212724)" stroke-width="1.25" stroke-linecap="round" stroke-linejoin="round"/>
<path id="Vector_3" d="M2.5 8.33333H17.5" stroke="var(--stroke-0, #212724)" stroke-width="1.25" stroke-linecap="round" stroke-linejoin="round"/>
<path id="Vector_4" d="M9.99625 11.6667H10.0038M9.99625 15H10.0038M13.3258 11.6667H13.3333M6.66667 11.6667H6.67414M6.66667 15H6.67414" stroke="var(--stroke-0, #212724)" stroke-width="1.66667" stroke-linecap="round" stroke-linejoin="round"/>
</g>
</svg>
