<svg preserveAspectRatio="none" width="100%" height="100%" overflow="visible" style="display: block;" viewBox="0 0 20 20" fill="none" xmlns="http://www.w3.org/2000/svg">
<g id="user-multiple">
<path id="Vector" d="M10.8341 9.16669C10.8341 7.32574 9.34173 5.83336 7.50081 5.83336C5.65986 5.83336 4.16748 7.32574 4.16748 9.16669C4.16748 11.0076 5.65986 12.5 7.50081 12.5C9.34173 12.5 10.8341 11.0076 10.8341 9.16669Z" stroke="var(--stroke-0, #212724)" stroke-width="1.25" stroke-linecap="round" stroke-linejoin="round"/>
<path id="Vector_2" d="M9.19965 6.29811C9.1784 6.14622 9.16748 5.99106 9.16748 5.83333C9.16748 3.99238 10.6599 2.5 12.5008 2.5C14.3417 2.5 15.8341 3.99238 15.8341 5.83333C15.8341 7.67428 14.3417 9.16667 12.5008 9.16667C11.8803 9.16667 11.2995 8.99717 10.802 8.70192" stroke="var(--stroke-0, #212724)" stroke-width="1.25" stroke-linecap="round" stroke-linejoin="round"/>
<path id="Vector_3" d="M12.5 17.5C12.5 14.7386 10.2614 12.5 7.5 12.5C4.73857 12.5 2.5 14.7386 2.5 17.5" stroke="var(--stroke-0, #212724)" stroke-width="1.25" stroke-linecap="round" stroke-linejoin="round"/>
<path id="Vector_4" d="M17.5 14.1666C17.5 11.4052 15.2614 9.16664 12.5 9.16664" stroke="var(--stroke-0, #212724)" stroke-width="1.25" stroke-linecap="round" stroke-linejoin="round"/>
</g>
</svg>
