<svg preserveAspectRatio="none" width="100%" height="100%" overflow="visible" style="display: block;" viewBox="0 0 16 16" fill="none" xmlns="http://www.w3.org/2000/svg">
<g id="checkmark-badge-02">
<path id="Vector" d="M12.6603 12.6667H12.6667M12.6603 12.6667C12.2452 13.0783 11.4929 12.9758 10.9653 12.9758C10.3177 12.9758 10.0058 13.1025 9.5436 13.5647C9.15007 13.9583 8.62247 14.6667 8 14.6667C7.37753 14.6667 6.84993 13.9583 6.45638 13.5647C5.99419 13.1025 5.68233 12.9758 5.03471 12.9758C4.50712 12.9758 3.75479 13.0783 3.33966 12.6667C2.92121 12.2517 3.02419 11.4963 3.02419 10.9653C3.02419 10.2943 2.87744 9.98573 2.39959 9.50787C1.68876 8.79707 1.33335 8.4416 1.33333 8C1.33334 7.55833 1.68875 7.20293 2.39957 6.49211C2.82613 6.06555 3.02419 5.64285 3.02419 5.03471C3.02419 4.5071 2.92166 3.75476 3.33333 3.33963C3.74829 2.92119 4.50373 3.02417 5.03472 3.02417C5.64285 3.02417 6.06555 2.82613 6.4921 2.39958C7.20293 1.68875 7.55833 1.33333 8 1.33333C8.44167 1.33333 8.79707 1.68875 9.50787 2.39958C9.93433 2.82605 10.357 3.02417 10.9653 3.02417C11.4929 3.02417 12.2453 2.92165 12.6604 3.33333C13.0788 3.74829 12.9758 4.50373 12.9758 5.03471C12.9758 5.70572 13.1226 6.01425 13.6004 6.49211C14.3113 7.20293 14.6667 7.55833 14.6667 8C14.6667 8.4416 14.3113 8.79707 13.6004 9.50787C13.1225 9.98573 12.9758 10.2943 12.9758 10.9653C12.9758 11.4963 13.0788 12.2517 12.6603 12.6667Z" stroke="var(--stroke-0, #212724)"/>
<path id="Vector_2" d="M6 8.59527L7.2 9.66667L10 6.33333" stroke="var(--stroke-0, #212724)" stroke-linecap="round" stroke-linejoin="round"/>
</g>
</svg>
