<svg preserveAspectRatio="none" width="100%" height="100%" overflow="visible" style="display: block;" viewBox="0 0 20.5091 20.5091" fill="none" xmlns="http://www.w3.org/2000/svg">
<g id="appointment-01">
<path id="Vector" d="M13.672 1.70918V5.12736M6.83565 1.70918V5.12736" stroke="var(--stroke-0, #141B34)" stroke-width="1.28182" stroke-linecap="round" stroke-linejoin="round"/>
<path id="Vector_2" d="M17.9447 11.1092V10.2546C17.9447 7.03194 17.9447 5.4206 16.9436 4.41943C15.9425 3.41827 14.331 3.41827 11.1084 3.41827H9.39929C6.17659 3.41827 4.56525 3.41827 3.56409 4.41943C2.56293 5.4206 2.56293 7.03194 2.56293 10.2546V11.9637C2.56293 15.1864 2.56293 16.7978 3.56409 17.7989C4.56525 18.8001 6.17659 18.8001 9.39929 18.8001" stroke="var(--stroke-0, #141B34)" stroke-width="1.28182" stroke-linecap="round" stroke-linejoin="round"/>
<path id="Vector_3" d="M2.56293 8.54554H17.9447" stroke="var(--stroke-0, #141B34)" stroke-width="1.28182" stroke-linecap="round" stroke-linejoin="round"/>
<path id="Vector_4" d="M11.1084 16.6637C11.1084 16.6637 12.2607 17.0967 12.8175 18.8001C12.8175 18.8001 15.5319 14.5274 17.9447 13.6728" stroke="var(--stroke-0, #141B34)" stroke-width="1.28182" stroke-linecap="round" stroke-linejoin="round"/>
</g>
</svg>
