<svg preserveAspectRatio="none" width="100%" height="100%" overflow="visible" style="display: block;" viewBox="0 0 16 16" fill="none" xmlns="http://www.w3.org/2000/svg">
<g id="flowbite:google-solid">
<path id="Vector" fill-rule="evenodd" clip-rule="evenodd" d="M8.02474 14.6653C6.22718 14.6394 4.51146 13.9096 3.24607 12.6327C2.62759 12.0088 2.1399 11.2677 1.81158 10.4528C1.48325 9.63795 1.32091 8.76575 1.33407 7.88733C1.37568 6.13378 2.11013 4.46808 3.37674 3.25467C4.6592 2.02597 6.36535 1.33797 8.14141 1.33333H8.25874C9.88872 1.34142 11.4585 1.94998 12.6681 3.04267L10.9714 4.58667C10.2127 3.91231 9.23246 3.5407 8.21741 3.54267C7.0272 3.5383 5.88163 3.99543 5.02141 4.818C4.6007 5.22006 4.26365 5.70135 4.02968 6.23418C3.7957 6.767 3.66941 7.34084 3.65807 7.92267C3.64865 8.50438 3.75469 9.08219 3.97005 9.62266C4.18542 10.1631 4.50583 10.6555 4.91274 11.0713C5.74483 11.9213 6.87381 12.4159 8.06274 12.4513H8.15807C9.09807 12.4993 10.0247 12.2153 10.7694 11.6513C11.5104 11.093 12.0247 10.2856 12.2174 9.378L12.2461 9.3H8.14674V7.02667H14.5987C14.649 7.43867 14.6712 7.85178 14.6654 8.266C14.5994 12.0933 11.9874 14.666 8.16807 14.666L8.02474 14.6653Z" fill="var(--fill-0, #8A8A8A)"/>
</g>
</svg>
