<svg preserveAspectRatio="none" width="100%" height="100%" overflow="visible" style="display: block;" viewBox="0 0 16 16" fill="none" xmlns="http://www.w3.org/2000/svg">
<g id="calendar-03">
<path id="Vector" d="M10.6677 1.3332V3.99987M5.33437 1.3332V3.99987" stroke="var(--stroke-0, #212724)" stroke-linecap="round" stroke-linejoin="round"/>
<path id="Vector_2" d="M8.66667 2.6668H7.33333C4.81917 2.6668 3.5621 2.6668 2.78105 3.44784C2 4.2289 2 5.48597 2 8.00013V9.33346C2 11.8476 2 13.1047 2.78105 13.8857C3.5621 14.6668 4.81917 14.6668 7.33333 14.6668H8.66667C11.1808 14.6668 12.4379 14.6668 13.2189 13.8857C14 13.1047 14 11.8476 14 9.33346V8.00013C14 5.48597 14 4.2289 13.2189 3.44784C12.4379 2.6668 11.1808 2.6668 8.66667 2.6668Z" stroke="var(--stroke-0, #212724)" stroke-linecap="round" stroke-linejoin="round"/>
<path id="Vector_3" d="M2 6.6668H14" stroke="var(--stroke-0, #212724)" stroke-linecap="round" stroke-linejoin="round"/>
<path id="Vector_4" d="M7.99804 9.3332H8.00404M7.99804 11.9999H8.00404M10.6617 9.3332H10.6677M5.33437 9.3332H5.34036M5.33437 11.9999H5.34036" stroke="var(--stroke-0, #212724)" stroke-width="1.33333" stroke-linecap="round" stroke-linejoin="round"/>
</g>
</svg>
