<svg preserveAspectRatio="none" width="100%" height="100%" overflow="visible" style="display: block;" viewBox="0 0 16 16" fill="none" xmlns="http://www.w3.org/2000/svg">
<g id="carousel-horizontal">
<path id="Vector" d="M4.66667 5.33333C4.66667 3.76199 4.66667 2.97631 5.15482 2.48815C5.64298 2 6.42865 2 8 2C9.57133 2 10.357 2 10.8452 2.48815C11.3333 2.97631 11.3333 3.76199 11.3333 5.33333V10.6667C11.3333 12.238 11.3333 13.0237 10.8452 13.5119C10.357 14 9.57133 14 8 14C6.42865 14 5.64298 14 5.15482 13.5119C4.66667 13.0237 4.66667 12.238 4.66667 10.6667V5.33333Z" stroke="var(--stroke-0, #2D7255)" stroke-linecap="round" stroke-linejoin="round"/>
<path id="Vector_2" d="M1.33333 4.66667C1.69798 4.73633 1.96635 4.85954 2.17851 5.07747C2.66667 5.5789 2.66667 6.38593 2.66667 8C2.66667 9.61407 2.66667 10.4211 2.17851 10.9225C1.96635 11.1405 1.69798 11.2637 1.33333 11.3333" stroke="var(--stroke-0, #2D7255)" stroke-linecap="round" stroke-linejoin="round"/>
<path id="Vector_3" d="M14.6667 4.66667C14.302 4.73633 14.0337 4.85954 13.8215 5.07747C13.3333 5.5789 13.3333 6.38593 13.3333 8C13.3333 9.61407 13.3333 10.4211 13.8215 10.9225C14.0337 11.1405 14.302 11.2637 14.6667 11.3333" stroke="var(--stroke-0, #2D7255)" stroke-linecap="round" stroke-linejoin="round"/>
</g>
</svg>
