<svg preserveAspectRatio="none" width="100%" height="100%" overflow="visible" style="display: block;" viewBox="0 0 10.0465 10.0465" fill="none" xmlns="http://www.w3.org/2000/svg">
<g id="star">
<path id="Vector" d="M5.7452 1.44171L6.48186 2.92721C6.58232 3.134 6.85019 3.33235 7.07623 3.37033L8.41142 3.59399C9.26529 3.73748 9.46622 4.36207 8.85091 4.97821L7.8129 6.02481C7.63708 6.20205 7.54084 6.54388 7.59522 6.78868L7.89243 8.08426C8.12681 9.10976 7.58685 9.50647 6.68697 8.97049L5.43547 8.22353C5.20947 8.08849 4.83695 8.08849 4.60672 8.22353L3.35525 8.97049C2.45953 9.50647 1.9154 9.10553 2.1498 8.08426L2.44697 6.78868C2.50138 6.54388 2.40512 6.20205 2.22932 6.02481L1.1913 4.97821C0.580202 4.36207 0.776925 3.73748 1.63078 3.59399L2.96598 3.37033C3.18782 3.33235 3.4557 3.134 3.55615 2.92721L4.29281 1.44171C4.69463 0.635657 5.34756 0.635657 5.7452 1.44171Z" fill="var(--fill-0, #FBC14D)"/>
</g>
</svg>
