<svg preserveAspectRatio="none" width="100%" height="100%" overflow="visible" style="display: block;" viewBox="0 0 60 55.1351" fill="none" xmlns="http://www.w3.org/2000/svg">
<g id="Frame" clip-path="url(#clip0_24_1275)">
<path id="Vector" d="M32.4324 42.5676C32.4324 42.1196 32.7954 41.7568 33.2432 41.7568H59.1891C59.6371 41.7568 59.9999 42.1196 59.9999 42.5676V45.4054C59.9999 45.8534 59.6371 46.2162 59.1891 46.2162H33.2432C32.7954 46.2162 32.4324 45.8534 32.4324 45.4054V42.5676Z" fill="var(--fill-0, #212724)"/>
<path id="Vector_2" d="M32.4324 22.7028C32.4324 22.255 32.7954 21.892 33.2432 21.892H59.1891C59.6371 21.892 59.9999 22.255 59.9999 22.7028V25.5407C59.9999 25.9885 59.6371 26.3515 59.1891 26.3515H33.2432C32.7954 26.3515 32.4324 25.9885 32.4324 25.5407V22.7028Z" fill="var(--fill-0, #212724)"/>
<path id="Vector_3" d="M15.4054 9.72981C15.4054 9.282 15.7684 8.919 16.2162 8.919H43.7838C44.2317 8.919 44.5946 9.282 44.5946 9.72981V14.5947C44.5946 15.0425 44.2317 15.4055 43.7838 15.4055H16.2162C15.7684 15.4055 15.4054 15.0425 15.4054 14.5947V9.72981Z" fill="var(--fill-0, #212724)"/>
<path id="Vector_4" d="M0 42.5676C0 42.1196 0.363013 41.7568 0.810811 41.7568H26.7568C27.2046 41.7568 27.5676 42.1196 27.5676 42.5676V45.4054C27.5676 45.8534 27.2046 46.2162 26.7568 46.2162H0.810811C0.363013 46.2162 0 45.8534 0 45.4054V42.5676Z" fill="var(--fill-0, #212724)"/>
<path id="Vector_5" d="M0 22.7028C0 22.255 0.363013 21.892 0.810811 21.892H26.7568C27.2046 21.892 27.5676 22.255 27.5676 22.7028V25.5407C27.5676 25.9885 27.2046 26.3515 26.7568 26.3515H0.810811C0.363013 26.3515 0 25.9885 0 25.5407V22.7028Z" fill="var(--fill-0, #212724)"/>
<path id="Vector_6" d="M11.3513 31.6218C11.3513 33.6369 9.71771 35.2704 7.7026 35.2704C5.6875 35.2704 4.05396 33.6369 4.05396 31.6218C4.05396 29.6067 5.6875 27.9731 7.7026 27.9731C9.71771 27.9731 11.3513 29.6067 11.3513 31.6218Z" fill="var(--fill-0, #737876)"/>
<path id="Vector_7" d="M11.3513 51.4865C11.3513 53.5018 9.71771 55.1352 7.7026 55.1352C5.6875 55.1352 4.05396 53.5018 4.05396 51.4865C4.05396 49.4713 5.6875 47.8379 7.7026 47.8379C9.71771 47.8379 11.3513 49.4713 11.3513 51.4865Z" fill="var(--fill-0, #737876)"/>
<path id="Vector_8" d="M23.5135 31.6218C23.5135 33.6369 21.8799 35.2704 19.8648 35.2704C17.8497 35.2704 16.2162 33.6369 16.2162 31.6218C16.2162 29.6067 17.8497 27.9731 19.8648 27.9731C21.8799 27.9731 23.5135 29.6067 23.5135 31.6218Z" fill="var(--fill-0, #737876)"/>
<path id="Vector_9" d="M23.5135 51.4865C23.5135 53.5018 21.8799 55.1352 19.8648 55.1352C17.8497 55.1352 16.2162 53.5018 16.2162 51.4865C16.2162 49.4713 17.8497 47.8379 19.8648 47.8379C21.8799 47.8379 23.5135 49.4713 23.5135 51.4865Z" fill="var(--fill-0, #737876)"/>
<path id="Vector_10" d="M43.7836 31.6218C43.7836 33.6369 42.1502 35.2704 40.135 35.2704C38.1199 35.2704 36.4863 33.6369 36.4863 31.6218C36.4863 29.6067 38.1199 27.9731 40.135 27.9731C42.1502 27.9731 43.7836 29.6067 43.7836 31.6218Z" fill="var(--fill-0, #737876)"/>
<path id="Vector_11" d="M33.6487 3.64876C33.6487 5.66387 32.0152 7.29741 30.0001 7.29741C27.985 7.29741 26.3514 5.66387 26.3514 3.64876C26.3514 1.63367 27.985 0.00011158 30.0001 0.00011158C32.0152 0.00011158 33.6487 1.63367 33.6487 3.64876Z" fill="var(--fill-0, #737876)"/>
<path id="Vector_12" d="M43.7836 51.4865C43.7836 53.5018 42.1502 55.1352 40.135 55.1352C38.1199 55.1352 36.4863 53.5018 36.4863 51.4865C36.4863 49.4713 38.1199 47.8379 40.135 47.8379C42.1502 47.8379 43.7836 49.4713 43.7836 51.4865Z" fill="var(--fill-0, #737876)"/>
<path id="Vector_13" d="M55.9459 31.6218C55.9459 33.6369 54.3125 35.2704 52.2972 35.2704C50.2819 35.2704 48.6486 33.6369 48.6486 31.6218C48.6486 29.6067 50.2819 27.9731 52.2972 27.9731C54.3125 27.9731 55.9459 29.6067 55.9459 31.6218Z" fill="var(--fill-0, #737876)"/>
<path id="Vector_14" d="M55.9459 51.4865C55.9459 53.5018 54.3125 55.1352 52.2972 55.1352C50.2819 55.1352 48.6486 53.5018 48.6486 51.4865C48.6486 49.4713 50.2819 47.8379 52.2972 47.8379C54.3125 47.8379 55.9459 49.4713 55.9459 51.4865Z" fill="var(--fill-0, #737876)"/>
</g>
<defs>
<clipPath id="clip0_24_1275">
<rect width="60" height="55.1351" fill="white"/>
</clipPath>
</defs>
</svg>
