<svg preserveAspectRatio="none" width="100%" height="100%" overflow="visible" style="display: block;" viewBox="0 0 16 16" fill="none" xmlns="http://www.w3.org/2000/svg">
<g id="star">
<path id="Vector" d="M9.15173 2.29612L10.3249 4.66192C10.4849 4.99125 10.9115 5.30713 11.2715 5.36762L13.3979 5.72383C14.7578 5.95235 15.0778 6.94706 14.0979 7.92833L12.4447 9.59513C12.1647 9.8774 12.0115 10.4218 12.0981 10.8117L12.5714 12.875C12.9447 14.5082 12.0847 15.14 10.6516 14.2864L8.65847 13.0968C8.29853 12.8817 7.70527 12.8817 7.3386 13.0968L5.34551 14.2864C3.919 15.14 3.05243 14.5015 3.42573 12.875L3.89901 10.8117C3.98566 10.4218 3.83235 9.8774 3.55237 9.59513L1.89923 7.92833C0.926 6.94706 1.2393 5.95235 2.59915 5.72383L4.72558 5.36762C5.07887 5.30713 5.50549 4.99125 5.66547 4.66192L6.83867 2.29612C7.4786 1.01241 8.51847 1.01241 9.15173 2.29612Z" fill="var(--fill-0, #2D7255)"/>
</g>
</svg>
