<svg width="16" height="16" viewBox="0 0 16 16" fill="none" xmlns="http://www.w3.org/2000/svg">
<path d="M2 4.66667H4" stroke="#141B34" stroke-linecap="round" stroke-linejoin="round"/>
<path d="M2 11.3333H6" stroke="#141B34" stroke-linecap="round" stroke-linejoin="round"/>
<path d="M12 11.3333H14" stroke="#141B34" stroke-linecap="round" stroke-linejoin="round"/>
<path d="M10 4.66667H14" stroke="#141B34" stroke-linecap="round" stroke-linejoin="round"/>
<path d="M4 4.66667C4 4.04541 4 3.73479 4.10149 3.48975C4.23682 3.16305 4.49639 2.90349 4.82309 2.76816C5.06812 2.66667 5.37875 2.66667 6 2.66667C6.62125 2.66667 6.93187 2.66667 7.17693 2.76816C7.5036 2.90349 7.7632 3.16305 7.89853 3.48975C8 3.73479 8 4.04541 8 4.66667C8 5.28792 8 5.59855 7.89853 5.84358C7.7632 6.17028 7.5036 6.42985 7.17693 6.56517C6.93187 6.66667 6.62125 6.66667 6 6.66667C5.37875 6.66667 5.06812 6.66667 4.82309 6.56517C4.49639 6.42985 4.23682 6.17028 4.10149 5.84358C4 5.59855 4 5.28792 4 4.66667Z" stroke="#141B34"/>
<path d="M8 11.3333C8 10.7121 8 10.4015 8.10147 10.1564C8.2368 9.82973 8.4964 9.57013 8.82307 9.4348C9.06813 9.33333 9.37873 9.33333 10 9.33333C10.6213 9.33333 10.9319 9.33333 11.1769 9.4348C11.5036 9.57013 11.7632 9.82973 11.8985 10.1564C12 10.4015 12 10.7121 12 11.3333C12 11.9546 12 12.2652 11.8985 12.5103C11.7632 12.8369 11.5036 13.0965 11.1769 13.2319C10.9319 13.3333 10.6213 13.3333 10 13.3333C9.37873 13.3333 9.06813 13.3333 8.82307 13.2319C8.4964 13.0965 8.2368 12.8369 8.10147 12.5103C8 12.2652 8 11.9546 8 11.3333Z" stroke="#141B34"/>
</svg>
