<svg preserveAspectRatio="none" width="100%" height="100%" overflow="visible" style="display: block;" viewBox="0 0 16 16" fill="none" xmlns="http://www.w3.org/2000/svg">
<g id="money-02">
<path id="Vector" d="M10.6667 3.33333H5.33333C3.44771 3.33333 2.50491 3.33333 1.91912 3.91912C1.33333 4.50491 1.33333 5.44771 1.33333 7.33333V8.66667C1.33333 10.5523 1.33333 11.4951 1.91912 12.0809C2.50491 12.6667 3.44771 12.6667 5.33333 12.6667H10.6667C12.5523 12.6667 13.4951 12.6667 14.0809 12.0809C14.6667 11.4951 14.6667 10.5523 14.6667 8.66667V7.33333C14.6667 5.44771 14.6667 4.50491 14.0809 3.91912C13.4951 3.33333 12.5523 3.33333 10.6667 3.33333Z" stroke="var(--stroke-0, #737876)" stroke-linecap="round" stroke-linejoin="round"/>
<path id="Vector_2" d="M12.3333 8H12.34" stroke="var(--stroke-0, #737876)" stroke-width="1.33333" stroke-linecap="round" stroke-linejoin="round"/>
<path id="Vector_3" d="M3.66667 8H3.67333" stroke="var(--stroke-0, #737876)" stroke-width="1.33333" stroke-linecap="round" stroke-linejoin="round"/>
<path id="Vector_4" d="M10 8C10 9.1046 9.1046 10 8 10C6.8954 10 6 9.1046 6 8C6 6.8954 6.8954 6 8 6C9.1046 6 10 6.8954 10 8Z" stroke="var(--stroke-0, #737876)" stroke-linecap="round" stroke-linejoin="round"/>
</g>
</svg>
