<svg preserveAspectRatio="none" width="100%" height="100%" overflow="visible" style="display: block;" viewBox="0 0 16 16" fill="none" xmlns="http://www.w3.org/2000/svg">
<g id="user-multiple">
<path id="Vector" d="M8.66732 7.33335C8.66732 5.86059 7.47338 4.66669 6.00065 4.66669C4.52789 4.66669 3.33398 5.86059 3.33398 7.33335C3.33398 8.80609 4.52789 10 6.00065 10C7.47338 10 8.66732 8.80609 8.66732 7.33335Z" stroke="var(--stroke-0, #212724)" stroke-linecap="round" stroke-linejoin="round"/>
<path id="Vector_2" d="M7.35972 5.03849C7.34272 4.91698 7.33398 4.79285 7.33398 4.66667C7.33398 3.19391 8.52792 2 10.0007 2C11.4734 2 12.6673 3.19391 12.6673 4.66667C12.6673 6.13943 11.4734 7.33333 10.0007 7.33333C9.50425 7.33333 9.03958 7.19773 8.64158 6.96153" stroke="var(--stroke-0, #212724)" stroke-linecap="round" stroke-linejoin="round"/>
<path id="Vector_3" d="M10 14C10 11.7909 8.20913 10 6 10C3.79086 10 2 11.7909 2 14" stroke="var(--stroke-0, #212724)" stroke-linecap="round" stroke-linejoin="round"/>
<path id="Vector_4" d="M14 11.3333C14 9.12419 12.2091 7.33333 10 7.33333" stroke="var(--stroke-0, #212724)" stroke-linecap="round" stroke-linejoin="round"/>
</g>
</svg>
