<svg preserveAspectRatio="none" width="100%" height="100%" overflow="visible" style="display: block;" viewBox="0 0 16 16" fill="none" xmlns="http://www.w3.org/2000/svg">
<g id="serving-food">
<path id="Vector" d="M2.66667 9.33333H14.6667" stroke="var(--stroke-0, #212724)" stroke-linecap="round" stroke-linejoin="round"/>
<path id="Vector_2" d="M3.33333 14.6667L3.95371 14.0463C4.30622 13.6938 4.48247 13.5175 4.70456 13.4173C4.92665 13.3171 5.17543 13.3015 5.67298 13.2705L7.84127 13.1349C8.90693 13.0683 9.4398 13.035 9.90867 12.8099C10.3776 12.5847 10.7367 12.1896 11.4549 11.3995L13.3333 9.33333H11L9.80473 10.5286C9.72527 10.6081 9.68547 10.6479 9.64413 10.6829C9.43147 10.8636 9.16747 10.9729 8.8894 10.9956C8.83527 11 8.77907 11 8.66667 11M8.66667 11C8.66667 10.6902 8.66667 10.5353 8.64107 10.4065C8.53587 9.8776 8.1224 9.46413 7.59347 9.35893C7.46467 9.33333 7.3098 9.33333 7 9.33333H6.47899C5.7823 9.33333 5.43395 9.33333 5.1073 9.41733C4.86399 9.47987 4.63075 9.57647 4.41447 9.70427C4.12411 9.87587 3.87779 10.1222 3.38516 10.6149L1.33333 12.6667M8.66667 11H6.33333" stroke="var(--stroke-0, #212724)" stroke-linecap="round" stroke-linejoin="round"/>
<path id="Vector_3" d="M3.33333 7.66667C3.33333 4.72114 5.72114 2.33333 8.66667 2.33333M8.66667 2.33333C11.6122 2.33333 14 4.72114 14 7.66667M8.66667 2.33333V1.33333" stroke="var(--stroke-0, #212724)" stroke-linecap="round" stroke-linejoin="round"/>
</g>
</svg>
