<svg preserveAspectRatio="none" width="100%" height="100%" overflow="visible" style="display: block;" viewBox="0 0 16 16" fill="none" xmlns="http://www.w3.org/2000/svg">
<g id="computer-desk-01">
<path id="Vector" d="M14.6667 8H1.33333" stroke="var(--stroke-0, #212724)" stroke-linecap="round" stroke-linejoin="round"/>
<path id="Vector_2" d="M13.3333 11.3333H10.6667C9.4096 11.3333 8.78107 11.3333 8.39053 10.9428C8 10.5523 8 9.92373 8 8.66667V8" stroke="var(--stroke-0, #212724)" stroke-linecap="round" stroke-linejoin="round"/>
<path id="Vector_3" d="M2.66667 8V14.6667M13.3333 8V14.6667" stroke="var(--stroke-0, #212724)" stroke-linecap="round" stroke-linejoin="round"/>
<path id="Vector_4" d="M4.66667 4V3.33333C4.66667 2.39053 4.66667 1.91912 4.95956 1.62623C5.25245 1.33333 5.72386 1.33333 6.66667 1.33333H9.33333C10.2761 1.33333 10.7475 1.33333 11.0405 1.62623C11.3333 1.91912 11.3333 2.39053 11.3333 3.33333V4C11.3333 4.94281 11.3333 5.41421 11.0405 5.70711C10.7475 6 10.2761 6 9.33333 6H6.66667C5.72386 6 5.25245 6 4.95956 5.70711C4.66667 5.41421 4.66667 4.94281 4.66667 4Z" stroke="var(--stroke-0, #212724)" stroke-linecap="round" stroke-linejoin="round"/>
<path id="Vector_5" d="M9 6L9.33333 8M7 6L6.66667 8" stroke="var(--stroke-0, #212724)" stroke-linecap="round" stroke-linejoin="round"/>
</g>
</svg>
