<svg width="32" height="32" viewBox="0 0 32 32" fill="none" xmlns="http://www.w3.org/2000/svg">
<g clip-path="url(#clip0_59_1070)">
<path d="M0 3.2C0 1.43269 1.43269 0 3.2 0H32V32H0V3.2Z" fill="white"/>
<path d="M12.8286 9.76271C12.4621 9.95841 12.0434 10.0694 11.5989 10.0694C10.1549 10.0694 8.98434 8.89881 8.98434 7.45483C8.98434 7.01028 9.09529 6.59164 9.29101 6.2251C7.99127 6.52971 7.02344 7.69629 7.02344 9.08891C7.02344 10.7134 8.34033 12.0303 9.9648 12.0303C11.3574 12.0303 12.524 11.0625 12.8286 9.76271Z" fill="#2D7255"/>
<path d="M23.4695 23.0864H8.53223" stroke="#141B34" stroke-width="1.01845" stroke-linecap="round" stroke-linejoin="round"/>
<path d="M23.4695 25.7003V21.966C23.4695 20.5577 23.4695 19.8535 23.032 19.416C22.5945 18.9785 21.8904 18.9785 20.4821 18.9785H11.5197C10.1114 18.9785 9.40723 18.9785 8.96973 19.416C8.53223 19.8535 8.53223 20.5577 8.53223 21.966V25.7003" stroke="#141B34" stroke-width="1.01845" stroke-linejoin="round"/>
<path d="M22.7219 18.9781V15.5131C22.7219 14.9965 22.7219 14.7383 22.5784 14.4944C22.4349 14.2504 22.2305 14.1242 21.8215 13.8717C20.1728 12.8537 18.1655 12.2563 16.0001 12.2563C13.8347 12.2563 11.8275 12.8537 10.1787 13.8717C9.76979 14.1242 9.56532 14.2504 9.42182 14.4944C9.27832 14.7383 9.27832 14.9965 9.27832 15.5131V18.9781" stroke="#141B34" stroke-width="1.01845" stroke-linecap="round"/>
<path d="M15.2539 18.9784V17.644C15.2539 17.3597 15.2111 17.2646 14.9922 17.1526C14.5365 16.9192 13.9832 16.7378 13.3867 16.7378C12.7902 16.7378 12.2369 16.9192 11.7811 17.1526C11.5623 17.2646 11.5195 17.3597 11.5195 17.644V18.9784" stroke="#141B34" stroke-width="1.01845" stroke-linecap="round"/>
<path d="M20.4814 18.9784V17.644C20.4814 17.3597 20.4387 17.2646 20.2198 17.1526C19.764 16.9192 19.2108 16.7378 18.6142 16.7378C18.0177 16.7378 17.4644 16.9192 17.0087 17.1526C16.7898 17.2646 16.7471 17.3597 16.7471 17.644V18.9784" stroke="#141B34" stroke-width="1.01845" stroke-linecap="round"/>
</g>
<defs>
<clipPath id="clip0_59_1070">
<path d="M0 3.2C0 1.43269 1.43269 0 3.2 0H32V32H0V3.2Z" fill="white"/>
</clipPath>
</defs>
</svg>
