<svg preserveAspectRatio="none" width="100%" height="100%" overflow="visible" style="display: block;" viewBox="0 0 16 16" fill="none" xmlns="http://www.w3.org/2000/svg">
<g id="user-multiple-03">
<path id="Vector" d="M11 13.3333V11.9803C11 11.1521 10.6271 10.3399 9.87353 9.9964C8.95433 9.5774 7.85193 9.33333 6.66667 9.33333C5.48141 9.33333 4.379 9.5774 3.45979 9.9964C2.70618 10.3399 2.33333 11.1521 2.33333 11.9803V13.3333" stroke="var(--stroke-0, #737876)" stroke-linecap="round" stroke-linejoin="round"/>
<path id="Vector_2" d="M13.6667 13.334V11.9808C13.6667 11.1526 13.2938 10.3406 12.5402 9.99705C12.3665 9.91785 12.1861 9.84485 12 9.77865" stroke="var(--stroke-0, #737876)" stroke-linecap="round" stroke-linejoin="round"/>
<path id="Vector_3" d="M6.66667 7.33333C7.95533 7.33333 9 6.28866 9 5C9 3.71134 7.95533 2.66667 6.66667 2.66667C5.378 2.66667 4.33333 3.71134 4.33333 5C4.33333 6.28866 5.378 7.33333 6.66667 7.33333Z" stroke="var(--stroke-0, #737876)" stroke-linecap="round" stroke-linejoin="round"/>
<path id="Vector_4" d="M10 2.76302C10.9638 3.04987 11.6667 3.94272 11.6667 4.99973C11.6667 6.05673 10.9638 6.9496 10 7.23647" stroke="var(--stroke-0, #737876)" stroke-linecap="round" stroke-linejoin="round"/>
</g>
</svg>
