<svg preserveAspectRatio="none" width="100%" height="100%" overflow="visible" style="display: block;" viewBox="0 0 16 16" fill="none" xmlns="http://www.w3.org/2000/svg">
<g id="yoga-02">
<path id="Vector" d="M5.25732 6.66667C5.71449 7.59787 6.20295 8.46993 6.09013 9.5428C5.90979 11.2579 3.83008 11.9035 2.50015 12.6936C1.62883 13.2113 1.9546 14.6667 3.02388 14.6667C4.32031 14.6667 5.47738 14.5632 6.64707 14.0134L8.94073 12.6019C9.25913 12.4522 9.66087 12.516 10 12.6667" stroke="var(--stroke-0, #737876)" stroke-linecap="round" stroke-linejoin="round"/>
<path id="Vector_2" d="M10.6737 6.66667C10.2068 7.59787 9.708 8.46993 9.8232 9.5428C10.0074 11.2579 12.1311 11.9035 13.4893 12.6936C14.379 13.2113 14.0463 14.6667 12.9544 14.6667C11.6305 14.6667 10.4489 14.5632 9.25447 14.0134L6.9122 12.6019C6.63879 12.476 6.30518 12.5011 6 12.6019" stroke="var(--stroke-0, #737876)" stroke-linecap="round" stroke-linejoin="round"/>
<path id="Vector_3" d="M6.66667 2.66667C6.66667 3.40305 7.2636 4 8 4C8.7364 4 9.33333 3.40305 9.33333 2.66667C9.33333 1.93029 8.7364 1.33333 8 1.33333C7.2636 1.33333 6.66667 1.93029 6.66667 2.66667Z" stroke="var(--stroke-0, #737876)"/>
<path id="Vector_4" d="M2 10.6667C3.63057 10.6667 4.36245 8.86327 4.59557 7.6194C4.65642 7.29473 4.75497 6.971 4.97083 6.72093C5.70434 5.87116 6.78933 5.33333 8 5.33333C9.21067 5.33333 10.2957 5.87116 11.0291 6.72093C11.245 6.971 11.3436 7.29473 11.4045 7.6194C11.6375 8.86327 12.3694 10.6667 14 10.6667" stroke="var(--stroke-0, #737876)" stroke-linecap="round" stroke-linejoin="round"/>
</g>
</svg>
