<svg width="48" height="48" viewBox="0 0 48 48" fill="none" xmlns="http://www.w3.org/2000/svg">
<rect width="48" height="48" rx="4.8" fill="#F1F1F1"/>
<path d="M38.0214 28.1689H11.6383" stroke="#141B34" stroke-width="1.2" stroke-linecap="round" stroke-linejoin="round"/>
<path d="M35.3831 34.7647H30.1065C27.6191 34.7647 26.3754 34.7647 25.6026 33.992C24.8298 33.2192 24.8298 31.9755 24.8298 29.4881V28.1689" stroke="#141B34" stroke-width="1.2" stroke-linecap="round" stroke-linejoin="round"/>
<path d="M14.2766 28.1689V39.6016M35.3831 28.1689V39.6016" stroke="#141B34" stroke-width="1.2" stroke-linecap="round" stroke-linejoin="round"/>
<path d="M18.9669 21.3841V20.2953C18.9669 18.7555 18.9669 17.9855 19.4563 17.5072C19.9458 17.0288 20.7334 17.0288 22.3088 17.0288H26.7646C28.34 17.0288 29.1276 17.0288 29.6171 17.5072C30.1065 17.9855 30.1065 18.7555 30.1065 20.2953V21.3841C30.1065 22.9239 30.1065 23.6939 29.6171 24.1722C29.1276 24.6506 28.34 24.6506 26.7646 24.6506H22.3088C20.7334 24.6506 19.9458 24.6506 19.4563 24.1722C18.9669 23.6939 18.9669 22.9239 18.9669 21.3841Z" stroke="#141B34" stroke-width="1.2" stroke-linecap="round" stroke-linejoin="round"/>
<path d="M26.0757 24.6506L26.5887 28.1684M22.9977 24.6506L22.4847 28.1684" stroke="#141B34" stroke-width="1.2" stroke-linecap="round" stroke-linejoin="round"/>
<path d="M37.4479 12.9249C37.4479 15.2184 35.5886 17.0778 33.295 17.0778C31.0015 17.0778 29.1422 15.2184 29.1422 12.9249C29.1422 10.6313 31.0015 8.77197 33.295 8.77197C35.5886 8.77197 37.4479 10.6313 37.4479 12.9249Z" fill="#3D7960"/>
<path d="M33.295 4.6189V5.86476M33.295 19.9846V21.2305M39.1679 18.7979L38.2869 17.9169M28.3026 7.93229L27.4217 7.05133M41.6008 12.9247H40.3549M26.2351 12.9247H24.9892M39.1683 7.05142L38.2873 7.93238" stroke="#3D7960" stroke-width="1.2" stroke-linecap="round"/>
</svg>
