<svg width="48" height="48" viewBox="0 0 48 48" fill="none" xmlns="http://www.w3.org/2000/svg">
<rect width="48" height="48" rx="4.8" fill="#F1F1F1"/>
<path d="M11.1353 23.8257V30.8278M11.1353 30.8278H13.9362C15.9167 30.8278 16.9069 30.8278 17.5222 31.443C18.1374 32.0583 18.1374 33.0485 18.1374 35.029V36.4294M11.1353 30.8278V36.4294" stroke="#141B34" stroke-width="1.2" stroke-linecap="round" stroke-linejoin="round"/>
<path d="M12.5358 15.8232L19.9814 11.7388C21.8253 10.7273 22.7473 10.2216 23.7391 10.2216C24.7309 10.2216 25.6529 10.7273 27.4968 11.7388L34.9424 15.8232" fill="#2D7255"/>
<path d="M32.1416 15.4236V21.0253M15.3366 15.4236V21.0253" stroke="#2D7255" stroke-width="1.2" stroke-linecap="round" stroke-linejoin="round"/>
<path d="M36.3428 23.8257V30.8278M36.3428 30.8278H33.542C31.5615 30.8278 30.5713 30.8278 29.956 31.443C29.3408 32.0583 29.3408 33.0485 29.3408 35.029V36.4294M36.3428 30.8278V36.4294" stroke="#141B34" stroke-width="1.2" stroke-linecap="round" stroke-linejoin="round"/>
<path d="M16.737 26.6263H23.7391M23.7391 26.6263H30.7412M23.7391 26.6263V36.4293M23.7391 36.4293H22.3387M23.7391 36.4293H25.1395" stroke="#141B34" stroke-width="1.2" stroke-linecap="round" stroke-linejoin="round"/>
</svg>
