<svg width="24" height="26" viewBox="0 0 24 26" fill="none" xmlns="http://www.w3.org/2000/svg">
<path d="M6.88705 4.25317C6.47744 4.47185 6.00962 4.59586 5.51286 4.59586C3.89929 4.59586 2.59124 3.2878 2.59124 1.67422C2.59124 1.17746 2.71523 0.709646 2.93393 0.300049C1.48153 0.64044 0.400024 1.94404 0.400024 3.50023C0.400024 5.31551 1.87159 6.78707 3.68686 6.78707C5.24306 6.78707 6.54665 5.70558 6.88705 4.25317Z" fill="#2D7255"/>
<path d="M21.2178 19.8376H2.42987" stroke="#212724" stroke-width="1.5" stroke-linecap="round" stroke-linejoin="round"/>
<path d="M21.2178 23.1251V18.4281C21.2178 16.6568 21.2178 15.7711 20.6675 15.2208C20.1172 14.6705 19.2315 14.6705 17.4602 14.6705H6.18746C4.41611 14.6705 3.53044 14.6705 2.98016 15.2208C2.42987 15.7711 2.42987 16.6568 2.42987 18.4281V23.1251" stroke="#212724" stroke-width="1.5" stroke-linecap="round" stroke-linejoin="round"/>
<path d="M20.2784 14.6706V10.3124C20.2784 9.66264 20.2784 9.33778 20.0979 9.03099C19.9174 8.72421 19.6603 8.56541 19.1458 8.24782C17.0721 6.96737 14.5474 6.21606 11.8238 6.21606C9.10019 6.21606 6.57554 6.96737 4.50176 8.24782C3.98741 8.56541 3.73023 8.72421 3.54973 9.03099C3.36925 9.33778 3.36925 9.66264 3.36925 10.3124V14.6706" stroke="#212724" stroke-width="1.5" stroke-linecap="round"/>
<path d="M10.8844 14.6705V12.9922C10.8844 12.6345 10.8307 12.515 10.5553 12.374C9.98213 12.0805 9.28618 11.8523 8.53593 11.8523C7.78568 11.8523 7.08978 12.0805 6.51646 12.374C6.24118 12.515 6.18744 12.6345 6.18744 12.9922V14.6705" stroke="#212724" stroke-width="1.5" stroke-linecap="round"/>
<path d="M17.4602 14.6705V12.9922C17.4602 12.6345 17.4065 12.515 17.1311 12.374C16.5579 12.0805 15.862 11.8523 15.1117 11.8523C14.3614 11.8523 13.6655 12.0805 13.0923 12.374C12.8169 12.515 12.7632 12.6345 12.7632 12.9922V14.6705" stroke="#212724" stroke-width="1.5" stroke-linecap="round"/>
</svg>
