<svg width="48" height="48" viewBox="0 0 48 48" fill="none" xmlns="http://www.w3.org/2000/svg">
<g clip-path="url(#clip0_245_2761)">
<rect width="48" height="48" rx="4.8" fill="#F1F1F1"/>
<path d="M19.2431 14.6446C18.6933 14.9381 18.0653 15.1046 17.3985 15.1046C15.2326 15.1046 13.4767 13.3487 13.4767 11.1827C13.4767 10.5159 13.6431 9.88795 13.9367 9.33813C11.9871 9.79505 10.5354 11.5449 10.5354 13.6339C10.5354 16.0706 12.5107 18.0459 14.9474 18.0459C17.0363 18.0459 18.7862 16.5942 19.2431 14.6446Z" fill="#2D7255"/>
<path d="M35.6466 34.63H13.2406" stroke="#141B34" stroke-width="1.2" stroke-linecap="round" stroke-linejoin="round"/>
<path d="M35.6466 38.5506V32.9491C35.6466 30.8367 35.6466 29.7804 34.9903 29.1242C34.3341 28.4679 33.2778 28.4679 31.1654 28.4679H17.7218C15.6094 28.4679 14.5532 28.4679 13.8969 29.1242C13.2406 29.7804 13.2406 30.8367 13.2406 32.9491V38.5506" stroke="#141B34" stroke-width="1.2" stroke-linecap="round" stroke-linejoin="round"/>
<path d="M34.5263 28.4678V23.2703C34.5263 22.4954 34.5263 22.108 34.3111 21.7421C34.0958 21.3763 33.7891 21.1869 33.1757 20.8081C30.7026 19.2811 27.6917 18.3851 24.4436 18.3851C21.1955 18.3851 18.1847 19.2811 15.7115 20.8081C15.0981 21.1869 14.7914 21.3763 14.5762 21.7421C14.3609 22.108 14.3609 22.4954 14.3609 23.2703V28.4678" stroke="#141B34" stroke-width="1.2" stroke-linecap="round"/>
<path d="M23.3233 28.4679V26.4664C23.3233 26.0399 23.2592 25.8973 22.9309 25.7292C22.2473 25.3792 21.4173 25.1071 20.5226 25.1071C19.6278 25.1071 18.7979 25.3792 18.1142 25.7292C17.7859 25.8973 17.7218 26.0399 17.7218 26.4664V28.4679" stroke="#141B34" stroke-width="1.2" stroke-linecap="round"/>
<path d="M31.1654 28.4679V26.4664C31.1654 26.0399 31.1013 25.8973 30.7729 25.7292C30.0893 25.3792 29.2594 25.1071 28.3646 25.1071C27.4699 25.1071 26.6399 25.3792 25.9563 25.7292C25.628 25.8973 25.5639 26.0399 25.5639 26.4664V28.4679" stroke="#141B34" stroke-width="1.2" stroke-linecap="round"/>
</g>
<defs>
<clipPath id="clip0_245_2761">
<rect width="48" height="48" rx="4.8" fill="white"/>
</clipPath>
</defs>
</svg>
